<svg width="40" height="40" viewBox="0 0 40 40" fill="none" xmlns="http://www.w3.org/2000/svg">
<rect width="40" height="40" rx="20" fill="#F5F0FF"/>
<path d="M25.6005 13.3112L19.9505 10.2712C19.3505 9.95125 18.6405 9.95125 18.0405 10.2712L12.4005 13.3112C11.9905 13.5412 11.7305 13.9812 11.7305 14.4612C11.7305 14.9513 11.9805 15.3913 12.4005 15.6112L18.0505 18.6512C18.3505 18.8112 18.6805 18.8913 19.0005 18.8913C19.3205 18.8913 19.6605 18.8112 19.9505 18.6512L25.6005 15.6112C26.0105 15.3913 26.2705 14.9513 26.2705 14.4612C26.2705 13.9812 26.0105 13.5412 25.6005 13.3112Z" fill="#5700FF"/>
<path d="M17.12 19.7106L11.87 17.0906C11.46 16.8806 11 16.9106 10.61 17.1406C10.23 17.3806 10 17.7906 10 18.2406V23.2006C10 24.0606 10.48 24.8306 11.25 25.2206L16.5 27.8406C16.68 27.9306 16.88 27.9806 17.08 27.9806C17.31 27.9806 17.55 27.9106 17.76 27.7906C18.14 27.5506 18.37 27.1406 18.37 26.6906V21.7306C18.36 20.8706 17.88 20.1006 17.12 19.7106Z" fill="#5700FF"/>
<path d="M27.9996 18.2406V20.7006C27.5196 20.5606 27.0096 20.5006 26.4996 20.5006C25.1396 20.5006 23.8096 20.9706 22.7596 21.8106C21.3196 22.9406 20.4996 24.6506 20.4996 26.5006C20.4996 26.9906 20.5596 27.4806 20.6896 27.9506C20.5396 27.9306 20.3896 27.8706 20.2496 27.7806C19.8696 27.5506 19.6396 27.1406 19.6396 26.6906V21.7306C19.6396 20.8706 20.1196 20.1006 20.8796 19.7106L26.1296 17.0906C26.5396 16.8806 26.9996 16.9106 27.3896 17.1406C27.7696 17.3806 27.9996 17.7906 27.9996 18.2406Z" fill="#5700FF"/>
<path d="M29.98 23.65C29.16 22.64 27.91 22 26.5 22C25.44 22 24.46 22.37 23.69 22.99C22.65 23.81 22 25.08 22 26.5C22 27.91 22.64 29.16 23.65 29.98C24.42 30.62 25.42 31 26.5 31C27.64 31 28.67 30.57 29.47 29.88C30.4 29.05 31 27.85 31 26.5C31 25.42 30.62 24.42 29.98 23.65ZM27.53 26.78C27.53 27.04 27.39 27.29 27.17 27.42L25.76 28.26C25.64 28.33 25.51 28.37 25.37 28.37C25.12 28.37 24.87 28.24 24.73 28.01C24.52 27.65 24.63 27.19 24.99 26.98L26.03 26.36V25.1C26.03 24.69 26.37 24.35 26.78 24.35C27.19 24.35 27.53 24.69 27.53 25.1V26.78Z" fill="#5700FF"/>
</svg>
