<svg width="40" height="40" viewBox="0 0 40 40" fill="none" xmlns="http://www.w3.org/2000/svg">
<rect width="40" height="40" rx="20" fill="#EAFDFF"/>
<path d="M28.1004 14.94C28.1004 15.48 27.8104 15.97 27.3504 16.22L25.6104 17.16L24.1304 17.95L21.0604 19.61C20.7304 19.79 20.3704 19.88 20.0004 19.88C19.6304 19.88 19.2704 19.79 18.9404 19.61L12.6504 16.22C12.1904 15.97 11.9004 15.48 11.9004 14.94C11.9004 14.4 12.1904 13.91 12.6504 13.66L14.6204 12.6L16.1904 11.75L18.9404 10.27C19.6004 9.91 20.4004 9.91 21.0604 10.27L27.3504 13.66C27.8104 13.91 28.1004 14.4 28.1004 14.94Z" fill="#0990F7"/>
<path d="M17.8997 20.7901L12.0497 17.8701C11.5997 17.6401 11.0797 17.6701 10.6497 17.9301C10.2197 18.1901 9.96973 18.6501 9.96973 19.1501V24.6801C9.96973 25.6401 10.4997 26.5001 11.3597 26.9301L17.2097 29.8501C17.4097 29.9501 17.6297 30.0001 17.8497 30.0001C18.1097 30.0001 18.3697 29.9301 18.5997 29.7801C19.0297 29.5201 19.2797 29.0601 19.2797 28.5601V23.0301C19.2897 22.0801 18.7597 21.2201 17.8997 20.7901Z" fill="#0990F7"/>
<path d="M30.03 19.1496V24.6796C30.03 25.6296 29.5 26.4896 28.64 26.9196L22.79 29.8496C22.59 29.9496 22.37 29.9996 22.15 29.9996C21.89 29.9996 21.63 29.9296 21.39 29.7796C20.97 29.5196 20.71 29.0596 20.71 28.5596V23.0396C20.71 22.0796 21.24 21.2196 22.1 20.7896L24.25 19.7196L25.75 18.9696L27.95 17.8696C28.4 17.6396 28.92 17.6596 29.35 17.9296C29.77 18.1896 30.03 18.6496 30.03 19.1496Z" fill="#0990F7"/>
<path d="M25.6101 17.16L24.1301 17.95L14.6201 12.6L16.1901 11.75L25.3701 16.93C25.4701 16.99 25.5501 17.07 25.6101 17.16Z" fill="#0990F7"/>
<path d="M25.75 18.9697V21.2397C25.75 21.6497 25.41 21.9897 25 21.9897C24.59 21.9897 24.25 21.6497 24.25 21.2397V19.7197L25.75 18.9697Z" fill="#0990F7"/>
</svg>
