<svg width="102" height="48" viewBox="0 0 102 48" fill="none" xmlns="http://www.w3.org/2000/svg">
<path d="M67.6896 50.3198C68.4851 50.7825 69.7181 50.717 70.4781 50.1745C71.2324 49.6366 71.1735 48.7864 70.3517 48.2876C69.5278 47.7878 68.277 47.8629 67.5596 48.4577C66.8536 49.0424 66.9104 49.8667 67.6896 50.3198Z" fill="#00CC8D" fill-opacity="0.62"/>
<path d="M74.6136 48.3258C73.7478 47.765 72.4168 47.7488 71.6568 48.2908C70.9095 48.8236 70.977 49.6444 71.7981 50.1467C72.6355 50.6587 73.9225 50.6836 74.7273 50.2062C75.5221 49.7338 75.4766 48.8845 74.6136 48.3258Z" fill="#00CC8D" fill-opacity="0.62"/>
<path d="M67.4793 45.6043C66.7413 46.196 66.7591 47.061 67.5212 47.5379C68.3039 48.0276 69.5391 47.9666 70.3069 47.4155C71.0548 46.8781 71.0392 46.0243 70.2735 45.4971C69.5008 44.9643 68.223 45.0069 67.4793 45.6043Z" fill="#00CC8D" fill-opacity="0.62"/>
<path d="M71.6619 47.4033C72.4858 47.9142 73.7863 47.9356 74.5918 47.4642C75.3901 46.9969 75.3795 46.1482 74.5584 45.5757C73.7217 44.9937 72.3466 44.953 71.5603 45.4996C70.7833 46.0385 70.8337 46.8892 71.6619 47.4033Z" fill="#00CC8D" fill-opacity="0.62"/>
<path d="M79.1495 50.65C80.004 50.2761 79.9997 49.4167 79.1119 48.7787C78.2326 48.1459 76.8262 47.9925 76.0265 48.441C75.2203 48.892 75.2721 49.722 76.1145 50.2914C76.9598 50.8623 78.3022 51.0202 79.1495 50.65Z" fill="#00CC8D" fill-opacity="0.62"/>
<path d="M63.6814 47.9099C64.3874 48.364 65.5452 48.2502 66.2604 47.6691C66.9842 47.0814 66.9636 46.1844 66.232 45.6973C65.5125 45.2178 64.359 45.3255 63.6729 45.9467C62.9818 46.5715 62.9782 47.4588 63.6814 47.9099Z" fill="#00CC8D" fill-opacity="0.62"/>
<path d="M67.4711 44.6567C68.1842 45.1661 69.4215 45.126 70.222 44.5937C71.0161 44.0639 71.0786 43.1826 70.3584 42.6265C69.6424 42.0743 68.3909 42.086 67.6075 42.6762C66.8376 43.2537 66.7758 44.1614 67.4711 44.6567Z" fill="#00CC8D" fill-opacity="0.62"/>
<path d="M79.1359 46.075C78.2743 45.4243 76.8303 45.2445 75.9844 45.6935C75.1526 46.1334 75.1682 46.9735 75.9907 47.5424C76.8331 48.125 78.2203 48.2895 79.0954 47.9238C79.9676 47.5586 79.9988 46.7261 79.1359 46.075Z" fill="#00CC8D" fill-opacity="0.62"/>
<path d="M74.5404 44.6896C75.3977 44.236 75.4722 43.3878 74.6888 42.7859C73.9061 42.1845 72.5601 42.1047 71.7135 42.6325C70.8867 43.1465 70.8341 44.0252 71.5849 44.553C72.3513 45.0929 73.6823 45.1427 74.5404 44.6896Z" fill="#00CC8D" fill-opacity="0.62"/>
<path d="M63.8524 42.9503C63.1243 43.5797 63.0533 44.529 63.716 45.0019C64.3645 45.4666 65.508 45.3513 66.2261 44.7692C66.9612 44.1734 66.9996 43.2785 66.3291 42.7578C65.6693 42.2479 64.5776 42.3235 63.8524 42.9503Z" fill="#00CC8D" fill-opacity="0.62"/>
<path d="M60.1613 46.3941C59.5022 47.0259 59.461 47.9478 60.1031 48.3882C60.7324 48.8209 61.8206 48.6747 62.4882 48.0753C63.1672 47.4658 63.153 46.582 62.4903 46.1071C61.8383 45.6403 60.8212 45.7617 60.1613 46.3941Z" fill="#00CC8D" fill-opacity="0.62"/>
<path d="M79.3438 43.3437C78.5192 42.6849 77.1093 42.4843 76.1902 42.916C75.281 43.3422 75.2185 44.193 76.0219 44.7751C76.8344 45.3643 78.2777 45.5329 79.1812 45.1657C80.0861 44.7964 80.1706 44.005 79.3438 43.3437Z" fill="#00CC8D" fill-opacity="0.62"/>
<path d="M83.994 47.0978C83.1147 46.3522 81.6614 46.0149 80.726 46.3461C79.8012 46.6732 79.7749 47.4889 80.623 48.1436C81.4633 48.7918 82.903 49.1107 83.8391 48.8654C84.7781 48.618 84.8662 47.8369 83.994 47.0978Z" fill="#00CC8D" fill-opacity="0.62"/>
<path d="M60.2178 45.4124C60.7846 45.8787 61.8116 45.7441 62.4892 45.1336C63.1853 44.5073 63.2549 43.6144 62.6789 43.1008C62.0972 42.5838 61.1284 42.6782 60.4365 43.3401C59.7525 43.9963 59.6396 44.9385 60.2178 45.4124Z" fill="#00CC8D" fill-opacity="0.62"/>
<path d="M68.111 39.67C67.2686 40.249 67.0967 41.1511 67.7246 41.6804C68.3567 42.2132 69.577 42.1807 70.4229 41.6418C71.2596 41.1084 71.4266 40.2607 70.8008 39.6862C70.1594 39.0975 68.9754 39.0757 68.111 39.67Z" fill="#00CC8D" fill-opacity="0.62"/>
<path d="M72.2388 39.7227C71.3012 40.2372 71.14 41.1347 71.8638 41.6828C72.5804 42.2247 73.866 42.2775 74.7724 41.8341C75.7035 41.3785 75.8839 40.5531 75.1637 39.9289C74.4598 39.3194 73.1643 39.2142 72.2388 39.7227Z" fill="#00CC8D" fill-opacity="0.62"/>
<path d="M64.003 41.934C64.5797 42.4333 65.6572 42.3373 66.4243 41.7481C67.195 41.1559 67.3612 40.2751 66.8157 39.7235C66.2553 39.1582 65.1941 39.1917 64.3986 39.8332C63.6052 40.4727 63.4206 41.4302 64.003 41.934Z" fill="#00CC8D" fill-opacity="0.62"/>
<path d="M56.7462 48.8424C57.3066 49.298 58.3181 49.1477 58.9588 48.5184C59.5888 47.9002 59.6023 47.0514 59.0347 46.5841C58.4552 46.1077 57.5304 46.2347 56.8961 46.8848C56.2782 47.5193 56.1915 48.3929 56.7462 48.8424Z" fill="#00CC8D" fill-opacity="0.62"/>
<path d="M84.0525 46.1714C85.0397 45.9352 85.2017 45.185 84.3721 44.4495C83.5247 43.6978 82.0104 43.3397 81.0054 43.6704C80.0238 43.9929 79.9499 44.7914 80.7944 45.443C81.6418 46.0962 83.0638 46.4071 84.0525 46.1714Z" fill="#00CC8D" fill-opacity="0.62"/>
<path d="M76.7754 40.1207C75.7625 40.5341 75.5878 41.3636 76.3492 41.969C77.1113 42.5755 78.4822 42.7583 79.478 42.418C80.4731 42.0772 80.7018 41.2955 79.9581 40.6215C79.2145 39.948 77.7811 39.7092 76.7754 40.1207Z" fill="#00CC8D" fill-opacity="0.62"/>
<path d="M57.3326 43.7323C56.6856 44.3891 56.5329 45.3166 57.0343 45.8118C57.5351 46.3065 58.4641 46.1694 59.1055 45.5218C59.7277 44.894 59.8115 44.0005 59.3392 43.4956C58.8576 42.9831 57.9769 43.0791 57.3326 43.7323Z" fill="#00CC8D" fill-opacity="0.62"/>
<path d="M61.0693 40.117C60.354 40.7671 60.136 41.7114 60.6076 42.2295C61.0913 42.7618 62.0644 42.6582 62.7811 42.0268C63.4999 41.3949 63.676 40.472 63.2079 39.928C62.7399 39.3861 61.7952 39.4567 61.0693 40.117Z" fill="#00CC8D" fill-opacity="0.62"/>
<path d="M88.7998 50.4119C89.807 50.3002 89.9697 49.5555 89.1095 48.722C88.255 47.8936 86.6875 47.3663 85.7094 47.5782C84.7413 47.7864 84.6916 48.5493 85.5425 49.2868C86.4005 50.0304 87.8175 50.5206 88.7998 50.4119Z" fill="#00CC8D" fill-opacity="0.62"/>
<path d="M85.0964 41.8114C84.3208 41.081 82.7632 40.6894 81.7013 40.9784C80.6316 41.2679 80.4356 42.0634 81.2197 42.7221C82.0081 43.384 83.4621 43.7268 84.5232 43.5257C85.5972 43.321 85.882 42.552 85.0964 41.8114Z" fill="#00CC8D" fill-opacity="0.62"/>
<path d="M69.0932 36.5404C68.1777 37.1021 67.8715 38.0327 68.4106 38.5828C68.9519 39.1349 70.1153 39.1399 71.0166 38.634C71.9308 38.12 72.2554 37.2139 71.7205 36.6191C71.1899 36.0324 70.0031 35.9806 69.0932 36.5404Z" fill="#00CC8D" fill-opacity="0.62"/>
<path d="M73.2657 36.7206C72.2542 37.1905 71.9218 38.0931 72.5199 38.6701C73.1243 39.2547 74.4007 39.3593 75.3951 38.9479C76.3831 38.5375 76.7418 37.706 76.175 37.0589C75.6174 36.424 74.275 36.2498 73.2657 36.7206Z" fill="#00CC8D" fill-opacity="0.62"/>
<path d="M53.9008 47.2473C53.2985 47.8461 53.1521 48.7381 53.6316 49.2059C54.1004 49.665 55.0109 49.564 55.6182 48.991C56.2326 48.4125 56.3036 47.5333 55.8306 47.0467C55.359 46.5636 54.5031 46.6489 53.9008 47.2473Z" fill="#00CC8D" fill-opacity="0.62"/>
<path d="M89.6336 46.1365C88.7955 45.3335 87.2272 44.7986 86.1902 44.9693C85.134 45.142 85.004 45.9171 85.85 46.6516C86.698 47.387 88.2088 47.8919 89.2458 47.7934C90.2793 47.6938 90.4817 46.9492 89.6336 46.1365Z" fill="#00CC8D" fill-opacity="0.62"/>
<path d="M65.4323 36.5681C64.5871 37.1801 64.2547 38.1635 64.7171 38.7054C65.1774 39.2479 66.2492 39.1834 67.066 38.6018C67.8679 38.0299 68.1683 37.1242 67.7507 36.5467C67.3267 35.9636 66.2754 35.9565 65.4323 36.5681Z" fill="#00CC8D" fill-opacity="0.62"/>
<path d="M57.5695 42.5656C57.9537 43.102 58.8522 42.9948 59.5043 42.3599C60.1584 41.7235 60.3516 40.7686 59.9759 40.2241C59.6037 39.6887 58.8046 39.7446 58.137 40.3795C57.4651 41.019 57.1831 42.0313 57.5695 42.5656Z" fill="#00CC8D" fill-opacity="0.62"/>
<path d="M77.1213 39.1453C77.7968 39.7426 79.1897 39.9514 80.2416 39.6476C81.3106 39.3373 81.6827 38.5419 81.0257 37.8536C80.3666 37.1644 78.8928 36.888 77.8139 37.2832C76.7279 37.6789 76.4302 38.5347 77.1213 39.1453Z" fill="#00CC8D" fill-opacity="0.62"/>
<path d="M61.4192 38.9017C61.7701 39.4671 62.7382 39.3863 63.4932 38.7651C64.2426 38.148 64.5494 37.2119 64.212 36.6318C63.8725 36.0523 63.0031 36.067 62.2233 36.7024C61.4533 37.3292 61.0719 38.3466 61.4192 38.9017Z" fill="#00CC8D" fill-opacity="0.62"/>
<path d="M54.0943 46.1293C54.4885 46.6347 55.3529 46.5362 55.9481 45.9318C56.5469 45.3253 56.6755 44.4171 56.2912 43.8894C55.9041 43.3596 55.154 43.4068 54.5361 44.0194C53.9203 44.6315 53.6909 45.6148 54.0943 46.1293Z" fill="#00CC8D" fill-opacity="0.62"/>
<path d="M90.5724 43.6522C89.7776 42.8233 88.1852 42.2681 87.0267 42.4306C85.9031 42.5871 85.6665 43.319 86.4386 44.0382C87.2213 44.7651 88.7719 45.2882 89.904 45.2258C91.049 45.1608 91.3701 44.4837 90.5724 43.6522Z" fill="#00CC8D" fill-opacity="0.62"/>
<path d="M86.3722 39.2595C85.7017 38.4849 84.1902 38.0384 82.9749 38.2883C81.7632 38.5372 81.3882 39.3199 82.0871 39.997C82.7675 40.6553 84.2407 41.0255 85.3941 40.862C86.5654 40.6944 87.0193 40.0061 86.3722 39.2595Z" fill="#00CC8D" fill-opacity="0.62"/>
<path d="M70.7437 33.2884C69.7053 33.8309 69.2039 34.7832 69.6243 35.3714C70.0363 35.9489 71.1692 35.9855 72.1543 35.4989C73.1509 35.0057 73.6367 34.1519 73.2517 33.5154C72.8653 32.8759 71.7601 32.7566 70.7437 33.2884Z" fill="#00CC8D" fill-opacity="0.62"/>
<path d="M95.2127 48.5835C94.3895 47.6693 92.797 46.949 91.672 46.9815C90.5504 47.0135 90.3708 47.7185 91.2025 48.5399C92.0342 49.3612 93.5421 50.0438 94.648 50.0987C95.7603 50.153 96.0373 49.4983 95.2127 48.5835Z" fill="#00CC8D" fill-opacity="0.62"/>
<path d="M73.7771 35.6215C74.2743 36.2229 75.5308 36.3463 76.6125 35.9451C77.7021 35.5403 78.2029 34.7332 77.7263 34.0668C77.2497 33.4014 75.979 33.2084 74.866 33.6731C73.7572 34.1358 73.2806 35.0206 73.7771 35.6215Z" fill="#00CC8D" fill-opacity="0.62"/>
<path d="M55.5113 40.6118C54.8728 41.2533 54.5553 42.2453 54.855 42.7985C55.1562 43.3551 55.9261 43.2683 56.5448 42.6314C57.1649 41.9944 57.3914 41.0624 57.1144 40.4919C56.8381 39.9241 56.1577 39.9632 55.5113 40.6118Z" fill="#00CC8D" fill-opacity="0.62"/>
<path d="M59.4356 36.8678C58.7062 37.5195 58.2935 38.5313 58.552 39.1124C58.8092 39.6925 59.6167 39.6183 60.3178 38.9839C61.0252 38.3434 61.364 37.3966 61.1296 36.7988C60.8952 36.2004 60.1679 36.2141 59.4356 36.8678Z" fill="#00CC8D" fill-opacity="0.62"/>
<path d="M67.1033 33.1661C66.1665 33.7634 65.665 34.726 65.9797 35.3177C66.2943 35.9094 67.2802 35.9008 68.1836 35.3431C69.0963 34.7803 69.5765 33.8792 69.286 33.256C68.9955 32.6333 68.0302 32.5743 67.1033 33.1661Z" fill="#00CC8D" fill-opacity="0.62"/>
<path d="M50.7064 49.3933C51.0999 49.8916 51.9302 49.8337 52.5269 49.273C53.1235 48.7132 53.2343 47.8772 52.8408 47.3763C52.4473 46.876 51.71 46.9162 51.1141 47.4805C50.5189 48.0448 50.3115 48.8956 50.7064 49.3933Z" fill="#00CC8D" fill-opacity="0.62"/>
<path d="M82.7208 35.0503C82.1789 34.3418 80.7249 34.0289 79.521 34.3987C78.3384 34.7603 77.8768 35.5771 78.4428 36.211C79.0111 36.8469 80.3485 37.0907 81.5162 36.8118C82.7066 36.5274 83.2635 35.7604 82.7208 35.0503Z" fill="#00CC8D" fill-opacity="0.62"/>
<path d="M92.0593 41.2078C91.376 40.4017 89.714 39.7846 88.4682 39.8958C87.2032 40.006 86.8089 40.7176 87.5242 41.4511C88.2487 42.1942 89.7545 42.7321 90.9911 42.7148C92.244 42.6965 92.7589 42.0332 92.0593 41.2078Z" fill="#00CC8D" fill-opacity="0.62"/>
<path d="M51.9878 44.1733C51.3961 44.7519 51.1113 45.6768 51.4096 46.2284C51.71 46.7866 52.4558 46.7633 53.0368 46.1969C53.6292 45.6209 53.8252 44.695 53.534 44.1393C53.2478 43.5963 52.5723 43.6019 51.9878 44.1733Z" fill="#00CC8D" fill-opacity="0.62"/>
<path d="M63.9545 33.1734C63.1156 33.8033 62.6014 34.8059 62.828 35.3966C63.0546 35.9868 63.9076 35.9457 64.723 35.3463C65.5462 34.7419 66.0427 33.7484 65.8289 33.149C65.6144 32.5538 64.7876 32.5472 63.9545 33.1734Z" fill="#00CC8D" fill-opacity="0.62"/>
<path d="M96.4007 46.2101C95.6273 45.3176 93.9318 44.5491 92.7364 44.5547C91.5275 44.5588 91.2569 45.2445 92.0617 46.0612C92.8657 46.8765 94.4212 47.5754 95.6066 47.6602C96.7765 47.7435 97.17 47.0974 96.4007 46.2101Z" fill="#00CC8D" fill-opacity="0.62"/>
<path d="M88.1929 36.5738C87.614 35.8276 86.0741 35.3588 84.8027 35.5706C83.5129 35.7839 82.9723 36.5738 83.5754 37.2549C84.1805 37.9401 85.6771 38.3449 86.9328 38.1991C88.1829 38.0523 88.781 37.3336 88.1929 36.5738Z" fill="#00CC8D" fill-opacity="0.62"/>
<path d="M56.0524 39.2129C56.2115 39.8062 56.9083 39.7656 57.5447 39.1581C58.1946 38.5379 58.5768 37.5378 58.4432 36.9217C58.3097 36.3172 57.7102 36.2989 57.0404 36.9176C56.3657 37.5424 55.8869 38.6085 56.0524 39.2129Z" fill="#00CC8D" fill-opacity="0.62"/>
<path d="M60.1092 35.4368C60.2136 36.0524 60.9573 36.0275 61.6988 35.4241C62.4453 34.8171 62.9524 33.8343 62.8736 33.1943C62.7933 32.5523 62.1491 32.507 61.3664 33.1343C60.5986 33.7484 60.0019 34.8207 60.1092 35.4368Z" fill="#00CC8D" fill-opacity="0.62"/>
<path d="M52.4125 42.811C52.5943 43.4094 53.2818 43.4012 53.865 42.8212C54.4502 42.2401 54.7429 41.2887 54.5795 40.6797C54.4133 40.0667 53.8515 40.0245 53.2342 40.6162C52.6326 41.1943 52.2271 42.2127 52.4125 42.811Z" fill="#00CC8D" fill-opacity="0.62"/>
<path d="M72.9945 29.9567C71.9284 30.4656 71.2735 31.4007 71.5335 32.0036C71.7963 32.6152 72.9093 32.7046 73.974 32.2469C75.0479 31.7842 75.7028 30.9141 75.44 30.2477C75.1772 29.5813 74.0891 29.4325 72.9945 29.9567Z" fill="#00CC8D" fill-opacity="0.62"/>
<path d="M77.2044 30.5041C76.0104 30.9303 75.34 31.8334 75.7086 32.452C76.0701 33.0585 77.2868 33.2287 78.4389 32.8792C79.6215 32.5191 80.319 31.71 79.9802 31.0161C79.6392 30.3167 78.4133 30.0714 77.2044 30.5041Z" fill="#00CC8D" fill-opacity="0.62"/>
<path d="M47.9439 49.3296C48.2315 49.8614 49.0178 49.8782 49.6031 49.3748C50.1855 48.8755 50.3588 48.0755 50.0655 47.5458C49.7629 47.0002 49.1137 46.9637 48.5164 47.4767C47.9382 47.9739 47.6562 48.8019 47.9439 49.3296Z" fill="#00CC8D" fill-opacity="0.62"/>
<path d="M69.4444 29.6313C68.4387 30.2017 67.749 31.2099 67.9401 31.8118C68.1276 32.4061 69.0658 32.4274 70.024 31.9037C71.0155 31.3623 71.6555 30.4561 71.49 29.7989C71.3302 29.1589 70.4388 29.0659 69.4444 29.6313Z" fill="#00CC8D" fill-opacity="0.62"/>
<path d="M94.4046 42.2165C93.0856 42.1774 92.6417 42.8164 93.3399 43.6118C94.0452 44.4144 95.6725 45.1544 96.9787 45.2829C98.2728 45.4089 98.8076 44.8456 98.1286 43.9557C97.4318 43.0414 95.7634 42.2562 94.4046 42.2165Z" fill="#00CC8D" fill-opacity="0.62"/>
<path d="M90.4948 37.3916C89.1268 37.4805 88.5813 38.1799 89.2149 38.9129C89.8498 39.6468 91.3975 40.2046 92.7378 40.2101C94.1143 40.2157 94.7529 39.59 94.1158 38.7407C93.4978 37.9163 91.8734 37.3012 90.4948 37.3916Z" fill="#00CC8D" fill-opacity="0.62"/>
<path d="M82.004 31.415C80.7006 31.735 80.0259 32.5431 80.4378 33.2045C80.8455 33.8571 82.1993 34.1533 83.4707 33.913C84.7833 33.6641 85.522 32.9195 85.0994 32.1779C84.6853 31.4516 83.3059 31.0945 82.004 31.415Z" fill="#00CC8D" fill-opacity="0.62"/>
<path d="M48.9467 46.137C49.1612 46.714 49.8225 46.746 50.3822 46.2289C50.9603 45.6956 51.2104 44.8184 51.0172 44.2267C50.8226 43.6329 50.2501 43.5673 49.6627 44.1027C49.0724 44.6416 48.7265 45.5483 48.9467 46.137Z" fill="#00CC8D" fill-opacity="0.62"/>
<path d="M66.3786 29.4707C65.4865 30.0782 64.8125 31.0879 64.8991 31.6985C64.9879 32.3248 65.7791 32.308 66.6805 31.7071C67.5676 31.1159 68.2062 30.1549 68.1387 29.5123C68.0698 28.8764 67.307 28.8388 66.3786 29.4707Z" fill="#00CC8D" fill-opacity="0.62"/>
<path d="M102.505 49.6042C101.785 48.6295 100.103 47.6685 98.8293 47.5013C97.565 47.3342 97.2077 47.9143 97.9393 48.7935C98.6915 49.6971 100.224 50.588 101.481 50.8506C102.739 51.1137 103.227 50.5789 102.505 49.6042Z" fill="#00CC8D" fill-opacity="0.62"/>
<path d="M55.0061 36.8147C54.3491 37.4227 53.8277 38.4523 53.8909 39.111C53.952 39.7566 54.5238 39.7708 55.1304 39.1781C55.7504 38.5742 56.1816 37.5801 56.156 36.93C56.129 36.2935 55.6432 36.2255 55.0061 36.8147Z" fill="#00CC8D" fill-opacity="0.62"/>
<path d="M59.192 33.0369C58.4675 33.654 57.8502 34.6892 57.8467 35.349C57.8431 36.0296 58.4391 36.0403 59.1408 35.4171C59.8411 34.7964 60.3874 33.7836 60.4087 33.1268C60.4285 32.4833 59.9108 32.4249 59.192 33.0369Z" fill="#00CC8D" fill-opacity="0.62"/>
<path d="M87.4006 32.8198C85.9971 33.0082 85.296 33.7513 85.7712 34.4482C86.2556 35.1568 87.6747 35.5911 89.0385 35.4875C90.4363 35.3808 91.2474 34.6981 90.7871 33.9139C90.339 33.1494 88.7842 32.6324 87.4006 32.8198Z" fill="#00CC8D" fill-opacity="0.62"/>
<path d="M64.0339 29.1961C63.2064 29.7843 62.4294 30.8687 62.3789 31.53C62.3264 32.1965 62.9777 32.2218 63.7796 31.6321C64.5772 31.045 65.2776 30.024 65.3507 29.3597C65.4196 28.7105 64.8457 28.6176 64.0339 29.1961Z" fill="#00CC8D" fill-opacity="0.62"/>
<path d="M51.1883 40.4299C50.5967 40.9765 50.1399 41.9766 50.2458 42.612C50.3488 43.2474 50.9518 43.2911 51.5108 42.736C52.0591 42.1925 52.4029 41.2563 52.3411 40.625C52.2772 39.9896 51.7786 39.886 51.1883 40.4299Z" fill="#00CC8D" fill-opacity="0.62"/>
<path d="M96.7667 39.9032C95.3114 39.8118 94.6842 40.4548 95.3292 41.2624C95.9613 42.0543 97.5616 42.8035 98.9544 42.9787C100.364 43.155 101.105 42.5912 100.503 41.6972C99.9119 40.8215 98.1994 39.9916 96.7667 39.9032Z" fill="#00CC8D" fill-opacity="0.62"/>
<path d="M100.72 45.3311C99.3629 45.1447 98.8892 45.741 99.6002 46.6085C100.313 47.4756 101.963 48.4066 103.268 48.6773C104.595 48.9506 105.169 48.4295 104.485 47.4608C103.807 46.4968 102.071 45.5155 100.72 45.3311Z" fill="#00CC8D" fill-opacity="0.62"/>
<path d="M76.0595 26.4637C74.9287 26.9452 74.1119 27.8742 74.2397 28.4949C74.369 29.1268 75.4323 29.2599 76.5609 28.8312C77.7016 28.3974 78.5227 27.5293 78.3927 26.8441C78.2635 26.1615 77.213 25.971 76.0595 26.4637Z" fill="#00CC8D" fill-opacity="0.62"/>
<path d="M80.3034 27.2123C79.0412 27.6064 78.1967 28.5111 78.4389 29.1495C78.6769 29.7753 79.8545 29.9881 81.0797 29.6691C82.327 29.3436 83.2013 28.5273 82.9925 27.8162C82.7823 27.1016 81.5776 26.8125 80.3034 27.2123Z" fill="#00CC8D" fill-opacity="0.62"/>
<path d="M95.1432 37.6995C96.6071 37.7467 97.4396 37.1433 96.9374 36.2986C96.4452 35.4702 94.8605 34.816 93.3746 34.8531C91.8824 34.8891 91.1216 35.586 91.648 36.3301C92.1636 37.0585 93.7134 37.6528 95.1432 37.6995Z" fill="#00CC8D" fill-opacity="0.62"/>
<path d="M72.5808 25.917C71.5211 26.4458 70.6468 27.4606 70.6858 28.0945C70.7235 28.7167 71.6007 28.7919 72.6192 28.3068C73.6683 27.8065 74.4893 26.8902 74.4737 26.2055C74.4581 25.5356 73.6356 25.3898 72.5808 25.917Z" fill="#00CC8D" fill-opacity="0.62"/>
<path d="M46.0762 47.1931C45.4916 47.6248 45.1315 48.4583 45.3531 49.0094C45.5676 49.5483 46.2623 49.6403 46.8319 49.2207C47.4186 48.7895 47.6608 47.9925 47.4428 47.4272C47.229 46.8721 46.6601 46.7634 46.0762 47.1931Z" fill="#00CC8D" fill-opacity="0.62"/>
<path d="M85.2167 28.355C83.8387 28.643 82.9971 29.443 83.2833 30.115C83.5738 30.7931 84.9375 31.1217 86.314 30.888C87.6735 30.6559 88.5344 29.9336 88.2375 29.1915C87.942 28.451 86.6031 28.0639 85.2167 28.355Z" fill="#00CC8D" fill-opacity="0.62"/>
<path d="M57.4077 32.766C56.7301 33.3557 56.0496 34.4204 55.9516 35.1086C55.8493 35.8075 56.3586 35.8573 57.0078 35.2574C57.6676 34.6489 58.2337 33.6534 58.363 32.9484C58.4873 32.2657 58.0959 32.1677 57.4077 32.766Z" fill="#00CC8D" fill-opacity="0.62"/>
<path d="M53.2586 36.4796C52.6349 37.0383 52.0511 38.0669 52.0149 38.7551C51.9758 39.4418 52.4716 39.5191 53.0547 38.9608C53.6456 38.397 54.1144 37.436 54.1904 36.7432C54.265 36.0499 53.8872 35.9173 53.2586 36.4796Z" fill="#00CC8D" fill-opacity="0.62"/>
<path d="M62.0888 28.9118C61.3117 29.5077 60.5177 30.5723 60.3507 31.2768C60.1845 31.9747 60.6974 32.03 61.4346 31.4429C62.1825 30.8476 62.8836 29.8561 63.0803 29.1496C63.2771 28.4395 62.8672 28.315 62.0888 28.9118Z" fill="#00CC8D" fill-opacity="0.62"/>
<path d="M69.6832 25.5248C68.7101 26.0988 67.8436 27.1202 67.7726 27.7734C67.7015 28.4155 68.3997 28.4658 69.3267 27.9319C70.2848 27.3808 71.1045 26.4412 71.2138 25.7539C71.3225 25.0677 70.6612 24.9468 69.6832 25.5248Z" fill="#00CC8D" fill-opacity="0.62"/>
<path d="M47.5093 43.7639C46.9418 44.2333 46.5419 45.0907 46.6577 45.7078C46.7742 46.3341 47.3737 46.4468 47.9312 45.9785C48.4973 45.5031 48.8013 44.6559 48.6934 44.0357C48.584 43.4135 48.0917 43.2834 47.5093 43.7639Z" fill="#00CC8D" fill-opacity="0.62"/>
<path d="M90.7361 29.9988C89.2659 30.1725 88.4448 30.9034 88.8283 31.6135C89.214 32.3246 90.6211 32.7716 92.0779 32.6806C93.5531 32.5882 94.5042 31.8984 94.1135 31.1127C93.7293 30.3401 92.2007 29.8246 90.7361 29.9988Z" fill="#00CC8D" fill-opacity="0.62"/>
<path d="M103.391 43.2697C101.898 43.0346 101.272 43.5786 101.906 44.4512C102.539 45.3233 104.146 46.2355 105.601 46.5565C107.033 46.872 107.81 46.392 107.227 45.4554C106.644 44.5152 104.866 43.5003 103.391 43.2697Z" fill="#00CC8D" fill-opacity="0.62"/>
<path d="M101.784 40.6839C103.243 40.8576 104.116 40.3329 103.646 39.474C103.168 38.6004 101.392 37.7247 99.8553 37.6216C98.2983 37.5149 97.5433 38.1209 98.0966 38.9305C98.6492 39.7391 100.271 40.5026 101.784 40.6839Z" fill="#00CC8D" fill-opacity="0.62"/>
<path d="M49.3691 39.9555C48.7881 40.4421 48.2703 41.4249 48.2917 42.0954C48.3108 42.7521 48.8123 42.8761 49.3521 42.3981C49.899 41.9146 50.3188 40.9581 50.3323 40.2958C50.3429 39.6482 49.9367 39.4811 49.3691 39.9555Z" fill="#00CC8D" fill-opacity="0.62"/>
<path d="M67.4456 25.0936C66.5855 25.6543 65.6699 26.7083 65.4611 27.3899C65.2438 28.0944 65.8028 28.1711 66.6572 27.6078C67.489 27.0598 68.3363 26.0729 68.5806 25.3739C68.8236 24.671 68.32 24.5216 67.4456 25.0936Z" fill="#00CC8D" fill-opacity="0.62"/>
<path d="M96.9901 32.2702C95.4296 32.2941 94.5233 32.9778 94.9502 33.7204C95.3686 34.4487 96.8992 35.0638 98.4043 35.1344C99.9499 35.2061 100.946 34.6229 100.564 33.7808C100.181 32.9361 98.5691 32.2448 96.9901 32.2702Z" fill="#00CC8D" fill-opacity="0.62"/>
<path d="M55.9899 32.2321C55.3528 32.774 54.6226 33.8361 54.4302 34.5553C54.2327 35.2878 54.6283 35.4198 55.2306 34.8804C55.8401 34.3349 56.4658 33.3277 56.7002 32.5886C56.9339 31.8491 56.6498 31.6713 55.9899 32.2321Z" fill="#00CC8D" fill-opacity="0.62"/>
<path d="M60.593 28.4389C59.8727 29.0108 59.0112 30.1288 58.7711 30.8414C58.5331 31.5413 58.9266 31.6363 59.5858 31.0918C60.2669 30.5296 61.0106 29.5076 61.3117 28.767C61.6122 28.0244 61.3231 27.8589 60.593 28.4389Z" fill="#00CC8D" fill-opacity="0.62"/>
<path d="M80.0013 22.7959C78.791 23.2327 77.7817 24.18 77.798 24.8251C77.813 25.4585 78.7889 25.6276 79.9587 25.2421C81.1754 24.8403 82.1414 23.9956 82.1414 23.284C82.1414 22.5907 81.2074 22.3596 80.0013 22.7959Z" fill="#00CC8D" fill-opacity="0.62"/>
<path d="M84.2266 23.8051C82.919 24.1652 81.9424 25.0236 82.0354 25.6758C82.1306 26.3397 83.3068 26.5881 84.6293 26.2645C85.9405 25.9425 86.8909 25.1709 86.7858 24.4532C86.6806 23.7401 85.5527 23.4384 84.2266 23.8051Z" fill="#00CC8D" fill-opacity="0.62"/>
<path d="M76.5164 22.0487C75.4191 22.5394 74.4268 23.4953 74.3018 24.1582C74.1775 24.8149 74.978 24.9429 76.0583 24.4853C77.155 24.0195 78.1089 23.1428 78.2381 22.4464C78.3667 21.748 77.6188 21.555 76.5164 22.0487Z" fill="#00CC8D" fill-opacity="0.62"/>
<path d="M43.7298 46.6404C43.1502 47.0101 42.7461 47.771 42.8803 48.3425C43.0117 48.9083 43.6389 49.0713 44.2071 48.7102C44.7853 48.343 45.0843 47.608 44.9543 47.0284C44.8229 46.4448 44.3137 46.2686 43.7298 46.6404Z" fill="#00CC8D" fill-opacity="0.62"/>
<path d="M51.7867 35.838C51.178 36.3368 50.5458 37.3303 50.4151 38.0663C50.2866 38.7784 50.6794 38.9501 51.2234 38.4782C51.7959 37.9825 52.3279 37.0418 52.5005 36.3084C52.6745 35.5683 52.3911 35.3438 51.7867 35.838Z" fill="#00CC8D" fill-opacity="0.62"/>
<path d="M65.7637 24.588C64.9654 25.1462 64.0427 26.1773 63.7103 26.9077C63.3744 27.6447 63.7821 27.757 64.5605 27.2008C65.3518 26.6355 66.2084 25.6475 66.5593 24.9125C66.9108 24.1766 66.5848 24.014 65.7637 24.588Z" fill="#00CC8D" fill-opacity="0.62"/>
<path d="M89.2783 25.1721C87.8123 25.4332 86.8428 26.2169 87.0452 26.9092C87.2455 27.5878 88.4764 27.9301 89.8885 27.7371C91.3325 27.5395 92.3688 26.8178 92.1798 26.0666C91.9952 25.3341 90.6932 24.9191 89.2783 25.1721Z" fill="#00CC8D" fill-opacity="0.62"/>
<path d="M45.6653 45.39C46.2051 44.9831 46.5674 44.1511 46.5326 43.5274C46.4956 42.9041 46.0545 42.7132 45.4913 43.1236C44.9231 43.538 44.4777 44.3741 44.5388 45.0085C44.5985 45.6424 45.1184 45.8019 45.6653 45.39Z" fill="#00CC8D" fill-opacity="0.62"/>
<path d="M73.7675 21.4103C72.7696 21.9335 71.7738 22.9133 71.5365 23.5985C71.2979 24.2893 71.9009 24.3995 72.8825 23.8951C73.8584 23.3938 74.8329 22.4577 75.0837 21.7633C75.3323 21.0736 74.7491 20.8953 73.7675 21.4103Z" fill="#00CC8D" fill-opacity="0.62"/>
<path d="M103.871 35.3219C102.225 35.1812 101.291 35.7593 101.724 36.5633C102.149 37.3516 103.691 38.1186 105.272 38.3472C106.873 38.5783 107.965 38.0912 107.608 37.2185C107.256 36.3576 105.5 35.4591 103.871 35.3219Z" fill="#00CC8D" fill-opacity="0.62"/>
<path d="M95.0186 27.06C93.5214 27.1966 92.5227 27.9143 92.7593 28.6133C93.005 29.3345 94.4192 29.8323 95.9363 29.7622C97.4087 29.6931 98.4926 29.0425 98.2859 28.2775C98.0771 27.5055 96.5365 26.9193 95.0186 27.06Z" fill="#00CC8D" fill-opacity="0.62"/>
<path d="M58.1765 30.4789C58.8044 29.9633 59.5928 28.9368 59.9898 28.1663C60.3855 27.3952 60.2171 27.1565 59.5424 27.6731C58.8811 28.179 57.967 29.2913 57.6203 30.0532C57.2702 30.8177 57.5507 30.9929 58.1765 30.4789Z" fill="#00CC8D" fill-opacity="0.62"/>
<path d="M47.4269 41.6929C47.961 41.2642 48.4128 40.3738 48.4987 39.6825C48.584 38.9927 48.2381 38.7692 47.6684 39.2157C47.1137 39.6515 46.5689 40.5704 46.5121 41.2373C46.4531 41.9189 46.8992 42.117 47.4269 41.6929Z" fill="#00CC8D" fill-opacity="0.62"/>
<path d="M70.3914 23.3472C71.2614 22.8433 72.2516 21.8656 72.6238 21.1453C72.9952 20.4235 72.6053 20.2387 71.7047 20.7715C70.8133 21.2982 69.7429 22.3588 69.4105 23.048C69.0838 23.7226 69.5426 23.8394 70.3914 23.3472Z" fill="#00CC8D" fill-opacity="0.62"/>
<path d="M53.8299 34.1472C54.4102 33.6393 55.0608 32.6711 55.3719 31.9148C55.6894 31.1392 55.487 30.8974 54.847 31.4145C54.227 31.9158 53.4549 32.9663 53.1949 33.7099C52.9272 34.4702 53.2503 34.6556 53.8299 34.1472Z" fill="#00CC8D" fill-opacity="0.62"/>
<path d="M63.038 26.6135C63.7511 26.0817 64.6531 25.0567 65.107 24.2887C65.5502 23.539 65.3684 23.3287 64.6311 23.8519C63.8903 24.3771 62.8611 25.4981 62.4562 26.2488C62.0578 26.9817 62.3469 27.129 63.038 26.6135Z" fill="#00CC8D" fill-opacity="0.62"/>
<path d="M101.468 29.6331C99.8887 29.6484 98.8971 30.2792 99.194 31.0076C99.5002 31.7547 101.005 32.3775 102.619 32.4476C104.238 32.5172 105.312 31.9518 105.001 31.1143C104.694 30.2858 103.115 29.6164 101.468 29.6331Z" fill="#00CC8D" fill-opacity="0.62"/>
<path d="M84.301 21.4118C85.512 21.0425 86.5831 20.2121 86.6747 19.5279C86.7671 18.8427 85.8657 18.5938 84.649 19.0022C83.433 19.4096 82.3982 20.2741 82.2959 20.9359C82.1957 21.5962 83.0708 21.7867 84.301 21.4118Z" fill="#00CC8D" fill-opacity="0.62"/>
<path d="M88.9734 22.6877C90.2661 22.4104 91.3507 21.6551 91.3805 20.9597C91.4103 20.2532 90.3129 19.8997 88.9911 20.2212C87.6494 20.5458 86.5982 21.3605 86.5918 22.0325C86.5875 22.7045 87.6288 22.9752 88.9734 22.6877Z" fill="#00CC8D" fill-opacity="0.62"/>
<path d="M68.628 22.6634C69.4284 22.1428 70.4392 21.1417 70.903 20.4189C71.3547 19.7129 71.1196 19.5123 70.3283 20.0095C69.5044 20.5266 68.4419 21.5567 67.978 22.3003C67.5107 23.0485 67.8197 23.1892 68.628 22.6634Z" fill="#00CC8D" fill-opacity="0.62"/>
<path d="M49.7092 37.5762C50.2518 37.1348 50.8321 36.1936 51.0552 35.4642C51.2711 34.7541 51.0367 34.4885 50.4749 34.9055C49.8896 35.3403 49.2241 36.3023 49.033 37.0479C48.8391 37.8002 49.1644 38.0196 49.7092 37.5762Z" fill="#00CC8D" fill-opacity="0.62"/>
<path d="M41.6887 47.867C42.2455 47.5745 42.6127 46.8487 42.5453 46.2777C42.4778 45.7221 42.0041 45.4915 41.4543 45.783C40.8847 46.0857 40.4443 46.8075 40.5252 47.382C40.6034 47.9438 41.1411 48.1545 41.6887 47.867Z" fill="#00CC8D" fill-opacity="0.62"/>
<path d="M80.4102 20.4368C81.477 20.0238 82.5489 19.1563 82.7953 18.4772C83.0425 17.7905 82.3265 17.5543 81.2363 18.0028C80.1581 18.4447 79.0898 19.3539 78.8511 20.0116C78.6047 20.6923 79.305 20.8634 80.4102 20.4368Z" fill="#00CC8D" fill-opacity="0.62"/>
<path d="M94.4349 24.3969C95.8399 24.2237 96.9884 23.4978 96.9017 22.7791C96.8137 22.0584 95.5252 21.6129 94.121 21.8415C92.7019 22.0706 91.6272 22.8416 91.7139 23.5151C91.8012 24.1876 93.0215 24.5701 94.4349 24.3969Z" fill="#00CC8D" fill-opacity="0.62"/>
<path d="M77.3393 19.6236C78.3095 19.1772 79.4005 18.2472 79.7514 17.5533C80.1008 16.8595 79.5951 16.6512 78.6121 17.1323C77.6482 17.6031 76.548 18.559 76.195 19.2239C75.8313 19.9086 76.3626 20.0727 77.3393 19.6236Z" fill="#00CC8D" fill-opacity="0.62"/>
<path d="M62.0532 25.7157C62.7102 25.2113 63.6151 24.2152 64.1464 23.4396C64.6912 22.6427 64.6095 22.374 63.8964 22.888C63.2024 23.3883 62.1825 24.4636 61.6981 25.2311C61.1995 26.0169 61.3927 26.2231 62.0532 25.7157Z" fill="#00CC8D" fill-opacity="0.62"/>
<path d="M57.187 29.5029C57.7829 29.0214 58.5827 28.0345 59.0429 27.2517C59.516 26.4462 59.4222 26.1551 58.7638 26.6473C58.126 27.1248 57.2104 28.1884 56.8006 28.963C56.3794 29.7558 56.5868 29.9885 57.187 29.5029Z" fill="#00CC8D" fill-opacity="0.62"/>
<path d="M43.4942 44.473C44.0212 44.1434 44.4325 43.3541 44.4581 42.7141C44.4822 42.0903 44.1122 41.843 43.5716 42.1757C43.0269 42.5119 42.5162 43.3464 42.5176 43.9651C42.5169 44.5695 42.9821 44.7935 43.4942 44.473Z" fill="#00CC8D" fill-opacity="0.62"/>
<path d="M100.642 26.6601C102.187 26.62 103.344 26.0084 103.211 25.2354C103.079 24.4552 101.743 23.9046 100.183 24.0087C98.6486 24.1098 97.5214 24.7975 97.645 25.4944C97.7686 26.1857 99.1167 26.6987 100.642 26.6601Z" fill="#00CC8D" fill-opacity="0.62"/>
<path d="M52.6586 33.0721C53.2126 32.645 53.8945 31.7327 54.278 30.9535C54.6623 30.1713 54.5593 29.8386 53.9818 30.2435C53.3731 30.6706 52.5833 31.6499 52.2374 32.4509C51.9007 33.2286 52.1152 33.4912 52.6586 33.0721Z" fill="#00CC8D" fill-opacity="0.62"/>
<path d="M45.6402 40.6223C46.163 40.2632 46.6481 39.4581 46.8022 38.7658C46.9571 38.0715 46.69 37.7738 46.148 38.1238C45.5798 38.4905 44.9988 39.3464 44.8802 40.0488C44.7644 40.7335 45.1231 40.9778 45.6402 40.6223Z" fill="#00CC8D" fill-opacity="0.62"/>
<path d="M75.1129 18.7812C75.9972 18.3078 77.0399 17.4062 77.5165 16.6982C77.9924 15.9906 77.704 15.7717 76.8261 16.24C75.9134 16.7261 74.7876 17.7044 74.3202 18.416C73.8657 19.1098 74.23 19.2541 75.1129 18.7812Z" fill="#00CC8D" fill-opacity="0.62"/>
<path d="M67.4664 21.7971C68.2108 21.2912 69.2208 20.3058 69.7954 19.5393C70.3516 18.7962 70.2365 18.5778 69.4751 19.0801C68.7187 19.5789 67.6454 20.6019 67.1035 21.3562C66.5594 22.1109 66.7441 22.2882 67.4664 21.7971Z" fill="#00CC8D" fill-opacity="0.62"/>
<path d="M48.36 36.3096C48.8792 35.9277 49.4588 35.0698 49.7287 34.3378C49.9986 33.6039 49.8204 33.2986 49.2656 33.6704C48.7088 34.0432 47.9956 35.0108 47.779 35.7275C47.5659 36.4275 47.8536 36.683 48.36 36.3096Z" fill="#00CC8D" fill-opacity="0.62"/>
<path d="M73.6167 17.8681C74.3916 17.4165 75.4485 16.4972 76.0352 15.7693C76.6297 15.0323 76.5253 14.7804 75.7426 15.2223C74.9641 15.6616 73.7545 16.6998 73.1899 17.4221C72.6394 18.1241 72.8539 18.3125 73.6167 17.8681Z" fill="#00CC8D" fill-opacity="0.62"/>
<path d="M37.2278 49.6367C37.8081 49.4519 38.1604 48.916 38.0823 48.4131C38.0028 47.9118 37.524 47.6812 36.9402 47.8884C36.3847 48.0865 35.9593 48.6224 36.0253 49.0917C36.0914 49.5722 36.6554 49.8191 37.2278 49.6367Z" fill="#00CC8D" fill-opacity="0.62"/>
<path d="M61.481 24.4721C62.0968 24.0286 63.0045 23.0783 63.6089 22.2702C64.2177 21.4565 64.2255 21.1472 63.5614 21.5992C62.9051 22.0462 61.8745 23.088 61.3332 23.8758C60.8034 24.6437 60.8936 24.8952 61.481 24.4721Z" fill="#00CC8D" fill-opacity="0.62"/>
<path d="M89.4408 17.3452C90.6 17.0278 91.6654 16.2908 91.8735 15.6294C92.0909 14.9412 91.3443 14.6522 90.1688 14.9981C88.9983 15.3414 87.8782 16.1617 87.6687 16.7997C87.4606 17.4351 88.261 17.6677 89.4408 17.3452Z" fill="#00CC8D" fill-opacity="0.62"/>
<path d="M94.1922 18.8502C95.4707 18.6028 96.551 17.9095 96.6455 17.235C96.7435 16.5396 95.7825 16.2029 94.4742 16.4975C93.212 16.7809 92.1395 17.526 92.0294 18.1604C91.9172 18.8091 92.8789 19.1037 94.1922 18.8502Z" fill="#00CC8D" fill-opacity="0.62"/>
<path d="M66.917 20.6121C67.5811 20.155 68.5876 19.1985 69.2325 18.428C69.8767 17.658 69.8817 17.3776 69.1856 17.8317C68.4874 18.2868 67.405 19.2889 66.7863 20.0686C66.1669 20.8503 66.2479 21.0723 66.917 20.6121Z" fill="#00CC8D" fill-opacity="0.62"/>
<path d="M85.6222 16.1189C86.6784 15.7471 87.7573 14.9486 88.0606 14.2893C88.3639 13.6315 87.7808 13.3959 86.7374 13.7885C85.6854 14.1832 84.6008 15.0192 84.2841 15.6617C83.968 16.3048 84.5618 16.4922 85.6222 16.1189Z" fill="#00CC8D" fill-opacity="0.62"/>
<path d="M39.2375 46.6519C39.7688 46.4228 40.1516 45.8072 40.1473 45.2541C40.1424 44.6999 39.7418 44.4393 39.2034 44.6791C38.6579 44.9224 38.214 45.5415 38.2289 46.0891C38.2424 46.6356 38.7055 46.881 39.2375 46.6519Z" fill="#00CC8D" fill-opacity="0.62"/>
<path d="M56.512 28.1273C57.0802 27.7093 57.8857 26.7773 58.3942 25.9869C58.9021 25.1956 58.8715 24.8629 58.2657 25.2758C57.6527 25.6938 56.7677 26.665 56.2975 27.4665C55.8266 28.268 55.9459 28.5449 56.512 28.1273Z" fill="#00CC8D" fill-opacity="0.62"/>
<path d="M99.8006 20.8044C101.206 20.6556 102.363 19.9938 102.355 19.2928C102.347 18.5924 101.186 18.1678 99.7907 18.3714C98.3886 18.5751 97.331 19.2756 97.3509 19.943C97.3722 20.5891 98.4248 20.9497 99.8006 20.8044Z" fill="#00CC8D" fill-opacity="0.62"/>
<path d="M41.4308 43.1647C41.9238 42.9 42.3634 42.1955 42.448 41.5926C42.5318 40.9821 42.1823 40.689 41.6546 40.9811C41.1368 41.2686 40.6488 41.9868 40.5984 42.5821C40.5466 43.1784 40.9344 43.4313 41.4308 43.1647Z" fill="#00CC8D" fill-opacity="0.62"/>
<path d="M82.7326 15.0415C83.6545 14.6453 84.7561 13.7955 85.1766 13.1433C85.6035 12.4779 85.1738 12.2499 84.2298 12.6806C83.3001 13.1032 82.2055 13.9779 81.7879 14.6245C81.3703 15.2695 81.8 15.4417 82.7326 15.0415Z" fill="#00CC8D" fill-opacity="0.62"/>
<path d="M72.879 16.7034C73.575 16.2758 74.676 15.3203 75.3387 14.5818C75.9793 13.8661 75.9743 13.5969 75.2783 14.0134C74.568 14.4381 73.3669 15.4611 72.7348 16.1899C72.119 16.899 72.2049 17.1184 72.879 16.7034Z" fill="#00CC8D" fill-opacity="0.62"/>
<path d="M51.7772 31.5589C52.2957 31.1937 53.021 30.2702 53.4137 29.5109C53.7937 28.7754 53.6971 28.4463 53.1495 28.8074C52.5912 29.1751 51.773 30.16 51.4306 30.9031C51.0961 31.6274 51.2744 31.9129 51.7772 31.5589Z" fill="#00CC8D" fill-opacity="0.62"/>
<path d="M43.9946 39.1434C44.4975 38.8376 44.9869 38.0986 45.1595 37.4296C45.3264 36.782 45.0927 36.5067 44.5749 36.812C44.0508 37.1213 43.4697 37.9233 43.3369 38.5582C43.2055 39.1799 43.5159 39.4339 43.9946 39.1434Z" fill="#00CC8D" fill-opacity="0.62"/>
<path d="M80.7239 13.9547C81.5464 13.556 82.5798 12.753 83.1281 12.08C83.7035 11.3745 83.5273 11.1271 82.6864 11.5406C81.8561 11.9489 80.7061 12.8551 80.1755 13.5169C79.6606 14.16 79.9184 14.3443 80.7239 13.9547Z" fill="#00CC8D" fill-opacity="0.62"/>
<path d="M66.8992 19.034C67.4959 18.6297 68.5393 17.6641 69.1927 16.9255C69.8497 16.1814 69.9193 15.8594 69.2914 16.2586C68.6522 16.6655 67.5846 17.6311 66.9333 18.4072C66.2848 19.1797 66.292 19.4454 66.8992 19.034Z" fill="#00CC8D" fill-opacity="0.62"/>
<path d="M61.3609 22.7782C61.9114 22.3998 62.8561 21.447 63.4534 20.6886C64.0465 19.9333 64.0955 19.5768 63.5095 19.9501C62.9122 20.331 61.9284 21.2925 61.3517 22.0793C60.7735 22.8671 60.7991 23.1638 61.3609 22.7782Z" fill="#00CC8D" fill-opacity="0.62"/>
<path d="M79.6213 12.7326C80.3224 12.3603 81.3913 11.5151 82.0206 10.8381C82.6535 10.1559 82.6244 9.8933 81.9134 10.2707C81.2216 10.6374 80.0553 11.5517 79.4402 12.2145C78.8251 12.8754 78.9245 13.1024 79.6213 12.7326Z" fill="#00CC8D" fill-opacity="0.62"/>
<path d="M47.1455 34.6301C47.6207 34.3253 48.2024 33.5375 48.4823 32.8548C48.7621 32.1707 48.608 31.8542 48.0973 32.1691C47.5951 32.4785 46.9275 33.3262 46.6903 33.9824C46.4502 34.6387 46.6789 34.9297 47.1455 34.6301Z" fill="#00CC8D" fill-opacity="0.62"/>
<path d="M72.85 15.1642C73.4651 14.7833 74.446 13.9574 75.1641 13.226C75.917 12.459 76.0349 12.1461 75.3815 12.5336C74.7408 12.9141 73.5994 13.8619 72.9239 14.5837C72.2669 15.2851 72.2527 15.534 72.85 15.1642Z" fill="#00CC8D" fill-opacity="0.62"/>
<path d="M56.171 26.2704C56.7144 25.8945 57.4808 25.0397 57.9822 24.2737C58.4602 23.5438 58.4226 23.2513 57.8508 23.621C57.2968 23.9796 56.4473 24.8822 56.0019 25.603C55.5424 26.3456 55.639 26.6392 56.171 26.2704Z" fill="#00CC8D" fill-opacity="0.62"/>
<path d="M95.3848 12.9836C96.4516 12.7226 97.4858 12.0541 97.7258 11.4456C97.9666 10.8371 97.321 10.5649 96.2783 10.8544C95.2214 11.1475 94.2142 11.8489 93.9756 12.4371C93.7468 13.0065 94.3584 13.2351 95.3848 12.9836Z" fill="#00CC8D" fill-opacity="0.62"/>
<path d="M34.4396 48.1326C34.956 48.0072 35.3217 47.5536 35.2933 47.1137C35.2642 46.6738 34.8522 46.4397 34.3337 46.587C33.8138 46.7343 33.4189 47.1858 33.4622 47.6176C33.502 48.0341 33.9332 48.255 34.4396 48.1326Z" fill="#00CC8D" fill-opacity="0.62"/>
<path d="M100.231 14.7178C101.357 14.5167 102.391 13.8924 102.537 13.2961C102.688 12.682 101.847 12.3483 100.702 12.5835C99.532 12.8232 98.5476 13.4825 98.4247 14.0829C98.3082 14.6594 99.0782 14.9235 100.231 14.7178Z" fill="#00CC8D" fill-opacity="0.62"/>
<path d="M91.6965 11.5018C92.6149 11.196 93.6257 10.492 93.963 9.9064C94.3097 9.30451 93.8238 9.05967 92.892 9.39033C91.9409 9.72709 90.9408 10.4611 90.6034 11.0594C90.2817 11.6334 90.7554 11.8147 91.6965 11.5018Z" fill="#00CC8D" fill-opacity="0.62"/>
<path d="M36.8339 45.097C37.2963 44.9325 37.6848 44.4047 37.7239 43.9222C37.763 43.429 37.4 43.1593 36.9142 43.3513C36.4369 43.5397 36.0292 44.0659 36.0114 44.5449C35.9929 45.0259 36.3651 45.2641 36.8339 45.097Z" fill="#00CC8D" fill-opacity="0.62"/>
<path d="M88.9085 10.1859C89.6671 9.90555 90.7048 9.17007 91.1672 8.57528C91.6523 7.95104 91.4037 7.68995 90.5976 8.01605C89.8376 8.32284 88.77 9.10098 88.314 9.67545C87.8573 10.2504 88.1329 10.4724 88.9085 10.1859Z" fill="#00CC8D" fill-opacity="0.62"/>
<path d="M39.4396 41.4871C39.8772 41.2727 40.2877 40.6723 40.38 40.1436C40.4717 39.6158 40.1989 39.3451 39.7479 39.5564C39.3026 39.7652 38.8267 40.3914 38.7414 40.9045C38.6534 41.4337 38.9957 41.7044 39.4396 41.4871Z" fill="#00CC8D" fill-opacity="0.62"/>
<path d="M79.4029 11.2114C80.0343 10.8493 81.0585 10.0386 81.7369 9.37018C82.4123 8.70429 82.4557 8.45337 81.7923 8.83635C81.1587 9.20206 80.0826 10.0422 79.4462 10.6735C78.7892 11.3252 78.785 11.566 79.4029 11.2114Z" fill="#00CC8D" fill-opacity="0.62"/>
<path d="M51.0644 29.5775C51.5268 29.2915 52.1902 28.5042 52.5723 27.8104C52.9558 27.113 52.8834 26.7894 52.3699 27.1064C51.8641 27.4193 51.1262 28.269 50.803 28.9278C50.489 29.5663 50.6212 29.8518 51.0644 29.5775Z" fill="#00CC8D" fill-opacity="0.62"/>
<path d="M67.3924 16.9363C67.9216 16.6001 68.8343 15.7843 69.4827 15.0773C70.1547 14.3449 70.2505 14.0249 69.6532 14.3896C69.0821 14.738 68.1361 15.5756 67.5096 16.2974C66.8874 17.0146 66.8533 17.2782 67.3924 16.9363Z" fill="#00CC8D" fill-opacity="0.62"/>
<path d="M87.3168 8.76646C88.0093 8.44748 89.0023 7.71708 89.5102 7.14871C90.013 6.58541 89.8831 6.35887 89.209 6.6748C88.5207 6.99683 87.5313 7.73028 87.0007 8.31288C86.4645 8.90005 86.6137 9.09002 87.3168 8.76646Z" fill="#00CC8D" fill-opacity="0.62"/>
<path d="M42.434 37.2796C42.8573 37.0439 43.3325 36.3907 43.493 35.8462C43.6528 35.3022 43.4355 35.035 42.9923 35.2773C42.5426 35.5237 42.0533 36.1667 41.9062 36.7239C41.7592 37.2801 42.0029 37.5193 42.434 37.2796Z" fill="#00CC8D" fill-opacity="0.62"/>
<path d="M73.4475 13.1971C73.9724 12.8776 75.0137 12.0161 75.6892 11.3502C76.3632 10.6849 76.501 10.3628 75.942 10.694C75.3646 11.0363 74.324 11.8917 73.6485 12.5871C73.0043 13.2494 72.9304 13.511 73.4475 13.1971Z" fill="#00CC8D" fill-opacity="0.62"/>
<path d="M61.5662 20.5823C62.0393 20.2913 62.9207 19.44 63.4797 18.7482C64.0323 18.0635 64.0984 17.7018 63.5848 18.0086C63.077 18.3119 62.2119 19.1296 61.6778 19.8225C61.1145 20.5513 61.0825 20.88 61.5662 20.5823Z" fill="#00CC8D" fill-opacity="0.62"/>
<path d="M56.0214 23.9464C56.4639 23.6721 57.1557 22.9478 57.5875 22.3164C58.0364 21.6607 58.0166 21.3519 57.5137 21.6577C57.025 21.9548 56.3304 22.6776 55.9184 23.3272C55.5107 23.9728 55.5661 24.2283 56.0214 23.9464Z" fill="#00CC8D" fill-opacity="0.62"/>
<path d="M79.989 9.28766C80.5139 8.98341 81.4585 8.253 82.1205 7.64501C82.8081 7.01365 82.9295 6.74546 82.3542 7.07561C81.7945 7.39663 80.8498 8.1245 80.1807 8.75585C79.5159 9.38264 79.4492 9.60054 79.989 9.28766Z" fill="#00CC8D" fill-opacity="0.62"/>
<path d="M46.0416 32.4908C46.4407 32.2612 46.9756 31.5933 47.2086 31.0493C47.4408 30.5043 47.2909 30.2346 46.8648 30.4845C46.4436 30.7319 45.9364 31.3475 45.712 31.8975C45.4755 32.4756 45.6296 32.728 46.0416 32.4908Z" fill="#00CC8D" fill-opacity="0.62"/>
<path d="M86.6311 7.22241C87.1872 6.95066 88.1383 6.25529 88.7172 5.69911C89.2847 5.15207 89.3124 4.90166 88.7534 5.18255C88.1752 5.47257 87.2355 6.16541 86.6481 6.73683C86.0813 7.28844 86.0835 7.48958 86.6311 7.22241Z" fill="#00CC8D" fill-opacity="0.62"/>
<path d="M31.6733 46.312C32.0661 46.2348 32.3694 45.9224 32.3829 45.5979C32.3964 45.2576 32.0874 45.0635 31.6741 45.1626C31.2806 45.2571 30.9688 45.5725 30.9688 45.8904C30.9687 46.2099 31.2763 46.3897 31.6733 46.312Z" fill="#00CC8D" fill-opacity="0.62"/>
<path d="M102.174 8.2129C103.007 8.00871 103.816 7.47336 103.984 7.00352C104.144 6.55502 103.664 6.37013 102.879 6.58651C102.096 6.80238 101.34 7.31945 101.134 7.77049C100.928 8.22356 101.374 8.40896 102.174 8.2129Z" fill="#00CC8D" fill-opacity="0.62"/>
<path d="M28.8555 48.7785C29.2788 48.7505 29.6006 48.5062 29.5985 48.2268C29.597 47.9485 29.2703 47.7468 28.8562 47.7763C28.43 47.8063 28.0891 48.0343 28.0756 48.3101C28.0614 48.6032 28.4073 48.8079 28.8555 48.7785Z" fill="#00CC8D" fill-opacity="0.62"/>
<path d="M98.5142 6.50519C99.2096 6.28728 100.031 5.72855 100.304 5.28056C100.575 4.8346 100.225 4.64362 99.5427 4.87828C98.8466 5.11752 98.076 5.66912 97.7933 6.12525C97.5262 6.55699 97.8395 6.71648 98.5142 6.50519Z" fill="#00CC8D" fill-opacity="0.62"/>
<path d="M34.4705 43.2056C34.8321 43.0858 35.1602 42.6723 35.1879 42.3183C35.2149 41.9592 34.9357 41.7697 34.5671 41.9094C34.2106 42.045 33.9002 42.4199 33.8647 42.7693C33.8277 43.1371 34.1019 43.328 34.4705 43.2056Z" fill="#00CC8D" fill-opacity="0.62"/>
<path d="M74.657 10.6636C75.0796 10.4187 75.9653 9.70003 76.5534 9.12962C77.1394 8.55972 77.2779 8.26613 76.8169 8.53331C76.3652 8.7954 75.5079 9.48364 74.9482 10.0373C74.3601 10.6199 74.2337 10.9084 74.657 10.6636Z" fill="#00CC8D" fill-opacity="0.62"/>
<path d="M68.2846 14.3085C68.6923 14.0718 69.5204 13.35 70.0532 12.7715C70.5852 12.194 70.6839 11.8877 70.2364 12.1488C69.7982 12.4048 68.997 13.095 68.4934 13.6553C67.9621 14.2455 67.8747 14.5462 68.2846 14.3085Z" fill="#00CC8D" fill-opacity="0.62"/>
<path d="M87.0543 5.2948C87.5252 5.03423 88.3271 4.43995 88.8747 3.94725C89.4238 3.45355 89.5133 3.24478 89.0558 3.4891C88.6069 3.72884 87.739 4.3602 87.197 4.84477C86.6295 5.35117 86.5699 5.56197 87.0543 5.2948Z" fill="#00CC8D" fill-opacity="0.62"/>
<path d="M50.5163 27.0904C50.8693 26.8867 51.3821 26.3087 51.6755 25.7942C51.9709 25.2745 51.9305 25.0064 51.5654 25.1994C51.1896 25.398 50.5894 26.0547 50.3259 26.5652C50.0731 27.0508 50.1697 27.291 50.5163 27.0904Z" fill="#00CC8D" fill-opacity="0.62"/>
<path d="M96.0953 4.84526C96.699 4.61009 97.3972 4.11233 97.7396 3.67043C98.0642 3.25189 97.9051 3.10104 97.3511 3.3164C96.7843 3.53685 96.0108 4.0783 95.6578 4.49887C95.3069 4.91791 95.5107 5.07282 96.0953 4.84526Z" fill="#00CC8D" fill-opacity="0.62"/>
<path d="M37.4583 39.4243C37.8035 39.276 38.1089 38.8742 38.1863 38.4785C38.2637 38.0844 38.0649 37.9188 37.7012 38.0915C37.3745 38.2464 37.0399 38.6629 36.9682 39.0129C36.8936 39.3796 37.1237 39.567 37.4583 39.4243Z" fill="#00CC8D" fill-opacity="0.62"/>
<path d="M62.0931 17.7845C62.4468 17.6001 63.1003 17.0018 63.552 16.4568C63.9959 15.9204 64.0719 15.6126 63.6955 15.8102C63.3041 16.0154 62.6549 16.6102 62.2152 17.173C61.7955 17.7099 61.7514 17.9623 62.0931 17.7845Z" fill="#00CC8D" fill-opacity="0.62"/>
<path d="M81.2951 6.87463C81.6751 6.67095 82.477 6.07007 83.0729 5.5464C83.6596 5.02983 83.8429 4.75403 83.4437 4.96685C83.0289 5.1878 82.2391 5.77953 81.6339 6.32708C81.0607 6.84568 80.9258 7.07171 81.2951 6.87463Z" fill="#00CC8D" fill-opacity="0.62"/>
<path d="M94.7747 3.18095C95.2236 2.99149 95.8664 2.53943 96.2712 2.1275C96.6825 1.70998 96.6662 1.5383 96.2222 1.73132C95.7989 1.91519 95.0808 2.41856 94.6888 2.8056C94.3031 3.18706 94.3471 3.36178 94.7747 3.18095Z" fill="#00CC8D" fill-opacity="0.62"/>
<path d="M40.8603 35.0209C41.1572 34.8904 41.4804 34.4968 41.6203 34.1031C41.7616 33.7044 41.6487 33.5068 41.3419 33.646C41.0492 33.7785 40.6763 34.2159 40.5506 34.5801C40.4263 34.9387 40.5783 35.1449 40.8603 35.0209Z" fill="#00CC8D" fill-opacity="0.62"/>
<path d="M56.0651 21.0416C56.33 20.909 56.786 20.4565 57.0779 20.0415C57.3727 19.6224 57.3926 19.3923 57.1106 19.5341C56.8428 19.6682 56.3343 20.1634 56.0694 20.5514C55.8037 20.939 55.8051 21.1711 56.0651 21.0416Z" fill="#00CC8D" fill-opacity="0.62"/>
<path d="M88.3735 2.92839C88.7052 2.74401 89.3466 2.2757 89.799 1.89018C90.2529 1.50314 90.3509 1.33806 90.0057 1.52853C89.6655 1.71596 88.9836 2.20916 88.5603 2.57487C88.1448 2.93296 88.0588 3.10363 88.3735 2.92839Z" fill="#00CC8D" fill-opacity="0.62"/>
<path d="M44.9855 29.8945C45.2319 29.7833 45.548 29.4298 45.7057 29.0935C45.8612 28.7603 45.7781 28.5973 45.5146 28.7385C45.266 28.8715 44.984 29.1966 44.8391 29.5192C44.6928 29.8442 44.7568 29.9976 44.9855 29.8945Z" fill="#00CC8D" fill-opacity="0.62"/>
<path d="M94.7782 1.19583C95.1078 1.0277 95.6206 0.661998 95.9551 0.358256C96.3145 0.0311486 96.3301 -0.0973599 95.9821 0.0799078C95.6546 0.246509 95.156 0.601555 94.8016 0.921043C94.4181 1.26694 94.4124 1.38224 94.7782 1.19583Z" fill="#00CC8D" fill-opacity="0.62"/>
<path d="M76.4073 7.46954C76.6197 7.36795 77.1758 6.93875 77.5644 6.57863C77.9735 6.19921 78.1546 5.92035 77.9124 6.03311C77.6894 6.13673 77.1261 6.56796 76.7404 6.93265C76.3129 7.33646 76.1609 7.58738 76.4073 7.46954Z" fill="#00CC8D" fill-opacity="0.62"/>
<path d="M83.425 3.76331C83.6672 3.64445 84.0919 3.33613 84.4975 2.98515C84.9038 2.63468 85.028 2.46452 84.7922 2.57779C84.5649 2.68598 84.0741 3.04001 83.6963 3.36864C83.317 3.6988 83.1991 3.87404 83.425 3.76331Z" fill="#00CC8D" fill-opacity="0.62"/>
<path d="M69.6545 10.9354C69.8981 10.8181 70.2782 10.5052 70.617 10.1471C70.9558 9.78853 71.0296 9.61279 70.7895 9.72504C70.5594 9.83273 70.1176 10.1918 69.8065 10.5271C69.4919 10.8638 69.4279 11.0452 69.6545 10.9354Z" fill="#00CC8D" fill-opacity="0.62"/>
</svg>
