<svg width="70" height="59" viewBox="0 0 70 59" fill="none" xmlns="http://www.w3.org/2000/svg">
<path d="M48.4063 50.3198C48.9752 50.7825 49.8569 50.717 50.4004 50.1745C50.9398 49.6366 50.8977 48.7864 50.31 48.2876C49.7208 47.7878 48.8263 47.8629 48.3133 48.4577C47.8085 49.0424 47.8491 49.8667 48.4063 50.3198Z" fill="#0990F7" fill-opacity="0.62"/>
<path d="M53.3575 48.3268C52.7383 47.766 51.7865 47.7498 51.243 48.2917C50.7086 48.8245 50.7569 49.6454 51.3441 50.1477C51.9429 50.6597 52.8633 50.6846 53.4388 50.2071C54.0071 49.7348 53.9746 48.8855 53.3575 48.3268Z" fill="#0990F7" fill-opacity="0.62"/>
<path d="M50.4299 51.0216C49.8417 50.5371 48.9462 50.6193 48.4281 51.1963C47.9192 51.7632 47.9456 52.552 48.4911 52.9893C49.0473 53.4353 49.9316 53.3789 50.4908 52.8553C51.046 52.3362 51.016 51.5047 50.4299 51.0216Z" fill="#0990F7" fill-opacity="0.62"/>
<path d="M48.2556 45.6062C47.7279 46.1979 47.7406 47.063 48.2856 47.5399C48.8453 48.0295 49.7286 47.9686 50.2777 47.4175C50.8125 46.8801 50.8014 46.0263 50.2538 45.499C49.7012 44.9662 48.7874 45.0089 48.2556 45.6062Z" fill="#0990F7" fill-opacity="0.62"/>
<path d="M45.5592 48.8302C45.0751 49.4459 45.0944 50.2778 45.6161 50.703C46.1403 51.1307 46.9748 51.0179 47.4909 50.4516C48.0156 49.8766 47.9886 49.0202 47.4441 48.5504C46.9017 48.0821 46.0478 48.209 45.5592 48.8302Z" fill="#0990F7" fill-opacity="0.62"/>
<path d="M53.4956 52.914C54.0777 52.4588 54.064 51.6106 53.4585 51.061C52.8597 50.5175 51.9225 50.4957 51.3846 51.0052C50.831 51.5288 50.861 52.341 51.4431 52.8408C52.013 53.3294 52.9181 53.365 53.4956 52.914Z" fill="#0990F7" fill-opacity="0.62"/>
<path d="M45.6886 53.3696C46.2092 53.7571 47.0646 53.6332 47.5903 53.0831C48.1119 52.5381 48.086 51.7254 47.5466 51.2891C46.999 50.8462 46.133 50.9808 45.6363 51.5766C45.136 52.1759 45.1527 52.9703 45.6886 53.3696Z" fill="#0990F7" fill-opacity="0.62"/>
<path d="M51.2471 47.4023C51.8362 47.9133 52.7663 47.9346 53.3423 47.4633C53.9132 46.996 53.9055 46.1472 53.3184 45.5748C52.72 44.9927 51.7367 44.952 51.1744 45.4986C50.6187 46.0375 50.6548 46.8883 51.2471 47.4023Z" fill="#0990F7" fill-opacity="0.62"/>
<path d="M56.6018 50.649C57.2128 50.2751 57.2098 49.4157 56.5749 48.7778C55.9461 48.1449 54.9404 47.9915 54.3684 48.44C53.7919 48.891 53.829 49.721 54.4314 50.2904C55.0358 50.8613 55.9958 51.0193 56.6018 50.649Z" fill="#0990F7" fill-opacity="0.62"/>
<path d="M45.54 47.9108C46.0449 48.3649 46.8728 48.2512 47.3843 47.6701C47.9019 47.0824 47.8872 46.1854 47.364 45.6983C46.8495 45.2188 46.0246 45.3265 45.5339 45.9477C45.0397 46.5725 45.0372 47.4598 45.54 47.9108Z" fill="#0990F7" fill-opacity="0.62"/>
<path d="M50.4339 55.4532C51.0241 54.9692 51.0419 54.1428 50.4761 53.68C49.9123 53.2183 49.0209 53.294 48.4911 53.8284C47.9578 54.3668 47.938 55.1271 48.4494 55.5477C48.9609 55.9678 49.8498 55.9332 50.4339 55.4532Z" fill="#0990F7" fill-opacity="0.62"/>
<path d="M53.5059 53.7753C52.9558 53.2252 52.0156 53.1825 51.4529 53.6666C50.8916 54.1496 50.8606 54.9435 51.3767 55.4296C51.8968 55.9188 52.8039 55.9863 53.4119 55.5652C54.0154 55.1477 54.0616 54.331 53.5059 53.7753Z" fill="#0990F7" fill-opacity="0.62"/>
<path d="M56.64 51.5365C56.0548 50.8955 55.0578 50.7208 54.4767 51.1515C53.8982 51.5797 53.9038 52.4107 54.4691 52.9781C55.0415 53.5515 55.9832 53.7298 56.5973 53.3722C57.2068 53.0172 57.2353 52.1872 56.64 51.5365Z" fill="#0990F7" fill-opacity="0.62"/>
<path d="M48.2503 44.6567C48.7602 45.1661 49.6451 45.126 50.2175 44.5937C50.7854 44.0639 50.8301 43.1826 50.315 42.6265C49.803 42.0743 48.9081 42.086 48.3478 42.6762C47.7972 43.2537 47.753 44.1614 48.2503 44.6567Z" fill="#0990F7" fill-opacity="0.62"/>
<path d="M42.9849 51.1957C43.4664 51.6015 44.2913 51.4405 44.7683 50.8447C45.2422 50.2545 45.2092 49.4266 44.719 48.9903C44.2212 48.5479 43.438 48.6936 42.9712 49.3153C42.506 49.9355 42.5009 50.7888 42.9849 51.1957Z" fill="#0990F7" fill-opacity="0.62"/>
<path d="M47.5217 55.6228C48.0784 55.1159 48.1007 54.3524 47.5837 53.9314C47.061 53.5052 46.1945 53.6231 45.6642 54.1731C45.136 54.7222 45.0913 55.4795 45.5804 55.8574C46.068 56.2348 46.9579 56.1363 47.5217 55.6228Z" fill="#0990F7" fill-opacity="0.62"/>
<path d="M56.5915 46.073C55.9754 45.4223 54.9428 45.2425 54.3378 45.6915C53.7431 46.1314 53.7542 46.9715 54.3424 47.5404C54.9448 48.123 55.9368 48.2876 56.5626 47.9219C57.1863 47.5567 57.2087 46.7242 56.5915 46.073Z" fill="#0990F7" fill-opacity="0.62"/>
<path d="M53.3054 44.6876C53.9185 44.2341 53.9718 43.3858 53.4116 42.7839C52.8519 42.1825 51.8893 42.1028 51.2839 42.6305C50.6926 43.1445 50.6551 44.0233 51.1919 44.551C51.74 45.0909 52.6919 45.1407 53.3054 44.6876Z" fill="#0990F7" fill-opacity="0.62"/>
<path d="M42.968 52.0742C42.4911 52.6695 42.4789 53.4594 42.966 53.8301C43.4414 54.1928 44.2724 54.047 44.7783 53.4995C45.2979 52.9387 45.2796 52.1382 44.7625 51.7293C44.2439 51.3205 43.4455 51.4794 42.968 52.0742Z" fill="#0990F7" fill-opacity="0.62"/>
<path d="M56.4847 56.0544C57.1105 55.7003 57.1582 54.8694 56.5726 54.2258C55.9992 53.5939 55.0636 53.4421 54.4896 53.8662C53.9111 54.2939 53.8902 55.1096 54.4241 55.6693C54.9488 56.2179 55.8737 56.4003 56.4847 56.0544Z" fill="#0990F7" fill-opacity="0.62"/>
<path d="M45.6621 42.9484C45.1414 43.5777 45.0906 44.527 45.5645 44.9999C46.0283 45.4647 46.846 45.3494 47.3596 44.7673C47.8853 44.1715 47.9127 43.2765 47.4332 42.7559C46.9614 42.2459 46.1807 42.3216 45.6621 42.9484Z" fill="#0990F7" fill-opacity="0.62"/>
<path d="M43.0226 46.395C42.5513 47.0269 42.5218 47.9488 42.981 48.3892C43.431 48.8219 44.2092 48.6756 44.6866 48.0763C45.1722 47.4668 45.162 46.583 44.6881 46.1081C44.2218 45.6413 43.4945 45.7627 43.0226 46.395Z" fill="#0990F7" fill-opacity="0.62"/>
<path d="M44.7403 54.3334C44.2384 53.9519 43.4425 54.0982 42.9219 54.6447C42.4074 55.1867 42.3322 55.909 42.7792 56.2609C43.2322 56.6175 44.1135 56.4905 44.6666 55.9669C45.2223 55.4417 45.2431 54.7158 44.7403 54.3334Z" fill="#0990F7" fill-opacity="0.62"/>
<path d="M53.1037 58.1252C53.7437 57.7351 53.8554 56.9605 53.347 56.4165C52.8345 55.868 51.9593 55.8136 51.3574 56.2657C50.7581 56.7177 50.6499 57.4842 51.1146 57.9601C51.5718 58.4264 52.4688 58.5128 53.1037 58.1252Z" fill="#0990F7" fill-opacity="0.62"/>
<path d="M56.7406 43.3457C56.1509 42.6869 55.1426 42.4863 54.4854 42.918C53.8352 43.3441 53.7905 44.1949 54.365 44.777C54.9461 45.3662 55.9782 45.5349 56.6243 45.1676C57.2714 44.7984 57.3318 44.007 56.7406 43.3457Z" fill="#0990F7" fill-opacity="0.62"/>
<path d="M50.1384 57.9295C50.7651 57.4871 50.8591 56.7445 50.3542 56.2812C49.8473 55.816 48.9894 55.8576 48.4038 56.3478C47.8181 56.84 47.7084 57.577 48.1706 57.9808C48.6252 58.3775 49.5197 58.3663 50.1384 57.9295Z" fill="#0990F7" fill-opacity="0.62"/>
<path d="M59.8368 54.3021C60.4631 54.0284 60.4996 53.2162 59.8896 52.4756C59.2796 51.734 58.2952 51.4257 57.6872 51.7711C57.0777 52.1175 57.0823 52.9587 57.6689 53.6119C58.2475 54.2539 59.2186 54.5713 59.8368 54.3021Z" fill="#0990F7" fill-opacity="0.62"/>
<path d="M59.9427 49.7582C59.3118 49.0227 58.2954 48.7093 57.6732 49.0542C57.0586 49.3945 57.0668 50.2143 57.6616 50.8629C58.264 51.5181 59.292 51.8402 59.9229 51.5659C60.5527 51.2906 60.575 50.4941 59.9427 49.7582Z" fill="#0990F7" fill-opacity="0.62"/>
<path d="M60.0657 47.0978C59.4369 46.3522 58.3976 46.0149 57.7287 46.3461C57.0674 46.6732 57.0486 47.4889 57.6551 48.1436C58.2559 48.7918 59.2855 49.1107 59.955 48.8654C60.6264 48.618 60.6894 47.8369 60.0657 47.0978Z" fill="#0990F7" fill-opacity="0.62"/>
<path d="M47.4222 56.4398C46.9275 56.034 46.0904 56.1376 45.5119 56.6476C44.9389 57.153 44.8119 57.8412 45.2472 58.1983C45.681 58.5539 46.5679 58.4878 47.1906 58.0256C47.8194 57.5593 47.9159 56.8447 47.4222 56.4398Z" fill="#0990F7" fill-opacity="0.62"/>
<path d="M43.0629 45.4115C43.4683 45.8777 44.2027 45.7431 44.6873 45.1326C45.1851 44.5063 45.2349 43.6134 44.8229 43.0999C44.4069 42.5828 43.7141 42.6773 43.2194 43.3391C42.7303 43.9953 42.6495 44.9376 43.0629 45.4115Z" fill="#0990F7" fill-opacity="0.62"/>
<path d="M40.5551 49.8135C40.0929 50.4245 40.0441 51.259 40.4769 51.6695C40.902 52.0733 41.6492 51.9295 42.1195 51.3495C42.6041 50.7531 42.5995 49.9384 42.1434 49.5031C41.6954 49.0755 41.0118 49.2106 40.5551 49.8135Z" fill="#0990F7" fill-opacity="0.62"/>
<path d="M59.7902 55.2519C59.2259 54.4864 58.2725 54.1664 57.6559 54.5088C57.0408 54.8506 56.9921 55.6547 57.5183 56.3165C58.0364 56.9667 58.9496 57.3014 59.5906 57.0495C60.2372 56.7955 60.3378 55.9935 59.7902 55.2519Z" fill="#0990F7" fill-opacity="0.62"/>
<path d="M56.3929 56.9595C55.8799 56.3037 54.9778 56.1305 54.3627 56.5389C53.7517 56.9457 53.6465 57.7147 54.1149 58.2725C54.5786 58.8231 55.4527 59.0267 56.1019 58.7032C56.7551 58.3776 56.8917 57.5964 56.3929 56.9595Z" fill="#0990F7" fill-opacity="0.62"/>
<path d="M48.7077 39.67C48.1053 40.249 47.9824 41.1511 48.4314 41.6804C48.8834 42.2132 49.7561 42.1807 50.361 41.6418C50.9593 41.1084 51.0787 40.2607 50.6312 39.6862C50.1726 39.0975 49.3259 39.0757 48.7077 39.67Z" fill="#0990F7" fill-opacity="0.62"/>
<path d="M51.6595 39.7207C50.9891 40.2352 50.8738 41.1328 51.3914 41.6808C51.9039 42.2228 52.8232 42.2756 53.4713 41.8322C54.1372 41.3765 54.2662 40.5512 53.7512 39.9269C53.2478 39.3174 52.3214 39.2123 51.6595 39.7207Z" fill="#0990F7" fill-opacity="0.62"/>
<path d="M40.3399 54.2782C40.7716 54.6475 41.5518 54.5149 42.0582 53.9719C42.5697 53.4244 42.5905 52.6671 42.1375 52.2663C41.6692 51.8523 40.9428 51.9854 40.4532 52.5614C39.9661 53.1354 39.9005 53.9029 40.3399 54.2782Z" fill="#0990F7" fill-opacity="0.62"/>
<path d="M45.7701 41.9331C46.1826 42.4324 46.9531 42.3364 47.5017 41.7472C48.0528 41.1549 48.1716 40.2742 47.7815 39.7225C47.3808 39.1572 46.6219 39.1907 46.0531 39.8323C45.4857 40.4717 45.3536 41.4292 45.7701 41.9331Z" fill="#0990F7" fill-opacity="0.62"/>
<path d="M40.5805 48.8444C40.9812 49.3 41.7045 49.1496 42.1627 48.5203C42.6132 47.9022 42.6229 47.0534 42.217 46.5861C41.8026 46.1097 41.1412 46.2367 40.6877 46.8868C40.2458 47.5212 40.1838 48.3949 40.5805 48.8444Z" fill="#0990F7" fill-opacity="0.62"/>
<path d="M60.1075 46.1734C60.8135 45.9372 60.9293 45.187 60.3361 44.4515C59.7301 43.6997 58.6472 43.3417 57.9285 43.6723C57.2265 43.9949 57.1737 44.7933 57.7776 45.445C58.3836 46.0982 59.4005 46.4091 60.1075 46.1734Z" fill="#0990F7" fill-opacity="0.62"/>
<path d="M42.6729 57.0641C42.1076 57.5609 41.9694 58.2004 42.392 58.5204C42.8172 58.8424 43.6588 58.749 44.2836 58.2806C44.9048 57.8154 45.0104 57.1378 44.5472 56.7792C44.0753 56.414 43.255 56.5537 42.6729 57.0641Z" fill="#0990F7" fill-opacity="0.62"/>
<path d="M54.9035 40.1197C54.1792 40.5331 54.0542 41.3626 54.5987 41.968C55.1438 42.5745 56.1241 42.7574 56.8362 42.417C57.5478 42.0762 57.7114 41.2945 57.1796 40.6205C56.6477 39.947 55.6227 39.7083 54.9035 40.1197Z" fill="#0990F7" fill-opacity="0.62"/>
<path d="M40.0779 56.6665C40.5061 57.0063 41.3065 56.8884 41.8678 56.3785C42.4235 55.8746 42.4687 55.1655 42.0044 54.8074C41.5412 54.4498 40.7849 54.5997 40.2643 55.1264C39.7477 55.6506 39.6492 56.3267 40.0779 56.6665Z" fill="#0990F7" fill-opacity="0.62"/>
<path d="M49.9391 58.7406C49.4962 58.2956 48.6378 58.3261 48.0054 58.7726C47.372 59.2211 47.1754 59.8606 47.566 60.2573C47.9561 60.6524 48.8079 60.6788 49.5023 60.2821C50.1885 59.8915 50.382 59.185 49.9391 58.7406Z" fill="#0990F7" fill-opacity="0.62"/>
<path d="M63.4717 51.3364C62.8541 50.5029 61.7935 50.0082 61.1368 50.2362C60.4744 50.4658 60.4628 51.2445 61.0708 51.9993C61.6803 52.7561 62.6636 53.2356 63.3422 53.0928C64.0157 52.9511 64.0899 52.1705 63.4717 51.3364Z" fill="#0990F7" fill-opacity="0.62"/>
<path d="M40.9997 43.7323C40.537 44.3891 40.4277 45.3166 40.7863 45.8118C41.1444 46.3065 41.8088 46.1694 42.2675 45.5218C42.7124 44.894 42.7724 44.0005 42.4346 43.4956C42.0902 42.9831 41.4604 43.0791 40.9997 43.7323Z" fill="#0990F7" fill-opacity="0.62"/>
<path d="M52.4365 60.6005C53.1354 60.2531 53.3538 59.515 52.9185 58.9792C52.4842 58.4438 51.607 58.3758 50.9716 58.7928C50.3433 59.2047 50.1447 59.8711 50.515 60.3384C50.8959 60.8174 51.7391 60.9479 52.4365 60.6005Z" fill="#0990F7" fill-opacity="0.62"/>
<path d="M59.1402 59.7927C59.8096 59.553 59.9696 58.7286 59.4683 57.983C58.967 57.2363 58.0425 56.9234 57.4249 57.2546C56.8174 57.5802 56.7082 58.3365 57.1501 58.9963C57.6027 59.6713 58.4657 60.035 59.1402 59.7927Z" fill="#0990F7" fill-opacity="0.62"/>
<path d="M63.292 54.0501C62.7033 53.2038 61.6758 52.7122 61.0424 52.9509C60.4156 53.1871 60.3861 53.9612 60.9388 54.7149C61.5076 55.49 62.4539 55.9924 63.1218 55.8461C63.7908 55.7008 63.8822 54.8978 63.292 54.0501Z" fill="#0990F7" fill-opacity="0.62"/>
<path d="M43.6722 40.117C43.1607 40.7671 43.0047 41.7114 43.342 42.2295C43.6879 42.7618 44.3838 42.6582 44.8963 42.0268C45.4103 41.3949 45.5363 40.472 45.2015 39.928C44.8668 39.3861 44.1913 39.4567 43.6722 40.117Z" fill="#0990F7" fill-opacity="0.62"/>
<path d="M46.5203 60.2745C47.2192 59.8687 47.4255 59.1931 46.9937 58.8107C46.561 58.4272 45.702 58.5156 45.0676 58.9707C44.4454 59.4181 44.2356 60.0155 44.6095 60.3563C44.9828 60.6966 45.8331 60.6748 46.5203 60.2745Z" fill="#0990F7" fill-opacity="0.62"/>
<path d="M63.5024 50.4129C64.2226 50.3011 64.3389 49.5565 63.7238 48.723C63.1128 47.8946 61.9918 47.3673 61.2924 47.5791C60.6001 47.7874 60.5645 48.5503 61.173 49.2878C61.7866 50.0314 62.7999 50.5216 63.5024 50.4129Z" fill="#0990F7" fill-opacity="0.62"/>
<path d="M62.7978 58.6524C63.4474 58.5021 63.5708 57.665 63.037 56.8229C62.4955 55.9655 61.4863 55.4692 60.8712 55.7207C60.2627 55.9685 60.2124 56.7665 60.7224 57.5324C61.2308 58.2933 62.1435 58.8038 62.7978 58.6524Z" fill="#0990F7" fill-opacity="0.62"/>
<path d="M39.5464 58.8165C39.9248 59.1309 40.7593 59.0572 41.382 58.6245C42.0154 58.1866 42.1526 57.5131 41.7163 57.185C41.284 56.8604 40.4881 56.9879 39.9207 57.4415C39.3503 57.8986 39.168 58.5016 39.5464 58.8165Z" fill="#0990F7" fill-opacity="0.62"/>
<path d="M60.854 41.8104C60.2994 41.08 59.1855 40.6884 58.4261 40.9774C57.6612 41.267 57.521 42.0624 58.0817 42.7212C58.6455 43.383 59.6853 43.7258 60.4441 43.5247C61.2121 43.32 61.4158 42.551 60.854 41.8104Z" fill="#0990F7" fill-opacity="0.62"/>
<path d="M49.4099 36.5423C48.7551 37.1041 48.5362 38.0346 48.9217 38.5847C49.3088 39.1368 50.1408 39.1419 50.7853 38.636C51.439 38.122 51.6712 37.2158 51.2887 36.621C50.9093 36.0344 50.0605 35.9826 49.4099 36.5423Z" fill="#0990F7" fill-opacity="0.62"/>
<path d="M38.112 52.0481C38.4873 52.4666 39.1908 52.3523 39.6444 51.7946C40.0969 51.2395 40.1218 50.4247 39.7394 49.9925C39.3503 49.5541 38.6829 49.6725 38.243 50.253C37.8097 50.8265 37.7335 51.627 38.112 52.0481Z" fill="#0990F7" fill-opacity="0.62"/>
<path d="M55.4094 61.2963C56.0896 61.0109 56.3187 60.2287 55.8971 59.6069C55.4689 58.9731 54.5602 58.7861 53.9293 59.1605C53.3061 59.5308 53.1222 60.2424 53.5006 60.7955C53.877 61.3446 54.7243 61.5848 55.4094 61.2963Z" fill="#0990F7" fill-opacity="0.62"/>
<path d="M37.8139 54.6117C38.1903 55.0054 38.9319 54.9231 39.4378 54.4187C39.9417 53.9179 39.998 53.1657 39.6013 52.7547C39.2107 52.3514 38.5093 52.4505 38.0328 52.9635C37.5574 53.4785 37.4406 54.2226 37.8139 54.6117Z" fill="#0990F7" fill-opacity="0.62"/>
<path d="M52.3943 36.7187C51.671 37.1885 51.4333 38.0911 51.861 38.6681C52.2932 39.2528 53.206 39.3574 53.9171 38.946C54.6236 38.5356 54.8801 37.7041 54.4748 37.057C54.0761 36.4221 53.1161 36.2478 52.3943 36.7187Z" fill="#0990F7" fill-opacity="0.62"/>
<path d="M38.5454 47.2473C38.1147 47.8461 38.01 48.7381 38.3529 49.2059C38.6881 49.665 39.3393 49.564 39.7736 48.991C40.2129 48.4125 40.2637 47.5333 39.9254 47.0467C39.5881 46.5636 38.9761 46.6489 38.5454 47.2473Z" fill="#0990F7" fill-opacity="0.62"/>
<path d="M64.099 46.1375C63.4997 45.3344 62.3782 44.7996 61.6366 44.9703C60.8813 45.143 60.7883 45.9181 61.3933 46.6525C61.9998 47.388 63.0801 47.8929 63.8217 47.7944C64.5608 47.6948 64.7055 46.9502 64.099 46.1375Z" fill="#0990F7" fill-opacity="0.62"/>
<path d="M46.792 36.5681C46.1876 37.1801 45.9499 38.1635 46.2805 38.7054C46.6097 39.2479 47.3761 39.1834 47.9603 38.6018C48.5337 38.0299 48.7486 37.1242 48.4499 36.5467C48.1467 35.9636 47.3949 35.9565 46.792 36.5681Z" fill="#0990F7" fill-opacity="0.62"/>
<path d="M43.544 60.4273C44.2373 60.0393 44.4613 59.4018 44.0586 59.063C43.6563 58.7242 42.808 58.8258 42.1751 59.2515C41.5402 59.6796 41.2918 60.2536 41.6504 60.5589C42.0004 60.8565 42.8603 60.8123 43.544 60.4273Z" fill="#0990F7" fill-opacity="0.62"/>
<path d="M41.1691 42.5656C41.4438 43.102 42.0864 42.9948 42.5527 42.3599C43.0205 41.7235 43.1586 40.7686 42.8899 40.2241C42.6238 39.6887 42.0523 39.7446 41.5749 40.3795C41.0944 41.019 40.8927 42.0313 41.1691 42.5656Z" fill="#0990F7" fill-opacity="0.62"/>
<path d="M55.1513 39.1433C55.6343 39.7407 56.6304 39.9494 57.3826 39.6457C58.1471 39.3353 58.4132 38.5399 57.9434 37.8517C57.472 37.1624 56.4181 36.8861 55.6465 37.2812C54.8699 37.6769 54.6571 38.5328 55.1513 39.1433Z" fill="#0990F7" fill-opacity="0.62"/>
<path d="M37.4077 56.9606C37.7729 57.2999 38.5557 57.2277 39.1088 56.7813C39.6711 56.3297 39.7615 55.6374 39.348 55.2768C38.9412 54.9218 38.2291 55.0203 37.7115 55.4805C37.1924 55.9442 37.0349 56.6152 37.4077 56.9606Z" fill="#0990F7" fill-opacity="0.62"/>
<path d="M43.9225 38.9037C44.1734 39.469 44.8657 39.3883 45.4056 38.7671C45.9415 38.1499 46.1609 37.2138 45.9197 36.6338C45.6769 36.0542 45.0551 36.0689 44.4974 36.7044C43.9468 37.3312 43.6741 38.3485 43.9225 38.9037Z" fill="#0990F7" fill-opacity="0.62"/>
<path d="M62.6096 59.682C62.1453 58.8155 61.2422 58.3111 60.6012 58.5148C59.9617 58.7189 59.8104 59.5382 60.237 60.3149C60.6571 61.0757 61.5312 61.6248 62.2017 61.4999C62.8717 61.3744 63.0728 60.5434 62.6096 59.682Z" fill="#0990F7" fill-opacity="0.62"/>
<path d="M38.6843 46.1274C38.9662 46.6328 39.5844 46.5343 40.01 45.9298C40.4382 45.3233 40.5301 44.4152 40.2553 43.8874C39.9785 43.3577 39.4421 43.4049 39.0002 44.0174C38.5599 44.6295 38.3958 45.6129 38.6843 46.1274Z" fill="#0990F7" fill-opacity="0.62"/>
<path d="M66.89 55.3226C67.5909 55.3282 67.7128 54.5709 67.1186 53.6317C66.5207 52.6864 65.4607 51.9972 64.7658 52.08C64.0811 52.1613 64.0227 52.9384 64.5947 53.779C65.1661 54.6171 66.189 55.316 66.89 55.3226Z" fill="#0990F7" fill-opacity="0.62"/>
<path d="M66.7763 56.3312C66.2084 55.3661 65.1956 54.6839 64.5287 54.783C63.8714 54.881 63.8034 55.6775 64.3342 56.5374C64.8644 57.3932 65.8402 58.1033 66.5243 58.0947C67.2095 58.0856 67.3416 57.2891 66.7763 56.3312Z" fill="#0990F7" fill-opacity="0.62"/>
<path d="M67.5233 51.0577C66.9143 50.1185 65.8121 49.415 65.066 49.4775C64.33 49.5395 64.2553 50.2963 64.8562 51.1252C65.4474 51.9394 66.4897 52.619 67.2247 52.6587C67.9734 52.6983 68.1278 51.9887 67.5233 51.0577Z" fill="#0990F7" fill-opacity="0.62"/>
<path d="M64.7704 43.6522C64.202 42.8233 63.0632 42.2681 62.2348 42.4306C61.4312 42.5871 61.2621 43.319 61.8142 44.0382C62.374 44.7651 63.4828 45.2882 64.2924 45.2258C65.1112 45.1608 65.3408 44.4837 64.7704 43.6522Z" fill="#0990F7" fill-opacity="0.62"/>
<path d="M66.3913 59.1829C65.8808 58.1823 64.9264 57.493 64.2615 57.5961C63.6002 57.6998 63.4854 58.4957 63.9618 59.3825C64.4291 60.2485 65.3312 60.9602 66.0108 60.948C66.6981 60.9353 66.885 60.1485 66.3913 59.1829Z" fill="#0990F7" fill-opacity="0.62"/>
<path d="M36.7252 59.0193C37.0477 59.3378 37.8838 59.2961 38.5156 58.9C39.145 58.5068 39.311 57.9191 38.9342 57.5915C38.5451 57.2537 37.8071 57.334 37.2128 57.7475C36.6358 58.1502 36.4026 58.7019 36.7252 59.0193Z" fill="#0990F7" fill-opacity="0.62"/>
<path d="M61.7666 39.2614C61.2872 38.4868 60.2063 38.0404 59.3372 38.2903C58.4707 38.5391 58.2025 39.3219 58.7023 39.9989C59.1889 40.6572 60.2423 41.0275 61.0672 40.8639C61.9048 40.6963 62.2294 40.0081 61.7666 39.2614Z" fill="#0990F7" fill-opacity="0.62"/>
<path d="M50.5905 33.2903C49.8479 33.8328 49.4893 34.7852 49.79 35.3734C50.0846 35.9509 50.8947 35.9874 51.5992 35.5009C52.3118 35.0077 52.6593 34.1538 52.384 33.5174C52.1077 32.8779 51.3173 32.7585 50.5905 33.2903Z" fill="#0990F7" fill-opacity="0.62"/>
<path d="M68.0887 48.5835C67.5 47.6693 66.3613 46.949 65.5567 46.9815C64.7547 47.0135 64.6262 47.7185 65.221 48.5399C65.8157 49.3612 66.8941 50.0438 67.6849 50.0987C68.4803 50.153 68.6784 49.4983 68.0887 48.5835Z" fill="#0990F7" fill-opacity="0.62"/>
<path d="M35.3872 54.8051C35.7077 55.2114 36.4106 55.1743 36.9115 54.7116C37.4189 54.2438 37.5047 53.5429 37.1542 53.1294C36.8012 52.7139 36.178 52.7627 35.6995 53.234C35.2201 53.7069 35.0631 54.3947 35.3872 54.8051Z" fill="#0990F7" fill-opacity="0.62"/>
<path d="M52.7594 35.6206C53.1149 36.2219 54.0134 36.3454 54.787 35.9441C55.5662 35.5393 55.9243 34.7322 55.5834 34.0658C55.2426 33.4004 54.3339 33.2074 53.538 33.6721C52.7451 34.1349 52.4043 35.0197 52.7594 35.6206Z" fill="#0990F7" fill-opacity="0.62"/>
<path d="M39.6972 40.6138C39.2406 41.2553 39.0135 42.2473 39.2279 42.8004C39.4432 43.3571 39.9938 43.2703 40.4362 42.6333C40.8797 41.9964 41.0417 41.0643 40.8436 40.4939C40.646 39.926 40.1594 39.9651 39.6972 40.6138Z" fill="#0990F7" fill-opacity="0.62"/>
<path d="M42.5036 36.8678C41.982 37.5195 41.6869 38.5313 41.8718 39.1124C42.0557 39.6925 42.6332 39.6183 43.1345 38.9839C43.6404 38.3434 43.8827 37.3966 43.7151 36.7988C43.5474 36.2004 43.0273 36.2141 42.5036 36.8678Z" fill="#0990F7" fill-opacity="0.62"/>
<path d="M35.8428 52.2465C36.1567 52.6924 36.8083 52.635 37.2604 52.1179C37.716 51.5973 37.779 50.8298 37.4494 50.3752C37.1187 49.9201 36.5447 49.9735 36.1018 50.4992C35.662 51.0218 35.5268 51.8005 35.8428 52.2465Z" fill="#0990F7" fill-opacity="0.62"/>
<path d="M47.9869 33.1671C47.317 33.7644 46.9584 34.7269 47.1834 35.3187C47.4084 35.9104 48.1134 35.9018 48.7595 35.3441C49.4122 34.7813 49.7555 33.8802 49.5478 33.257C49.34 32.6342 48.6498 32.5753 47.9869 33.1671Z" fill="#0990F7" fill-opacity="0.62"/>
<path d="M36.261 49.3924C36.5424 49.8906 37.1362 49.8327 37.5629 49.272C37.9895 48.7122 38.0688 47.8762 37.7874 47.3754C37.506 46.8751 36.9787 46.9152 36.5526 47.4795C36.1269 48.0438 35.9786 48.8946 36.261 49.3924Z" fill="#0990F7" fill-opacity="0.62"/>
<path d="M35.2172 55.6968C34.6799 56.1128 34.4802 56.7137 34.8094 57.0794C35.1319 57.438 35.8583 57.4227 36.416 57.0255C36.9864 56.6197 37.1205 55.9787 36.7624 55.6109C36.4114 55.2503 35.7353 55.296 35.2172 55.6968Z" fill="#0990F7" fill-opacity="0.62"/>
<path d="M59.1552 35.0484C58.7677 34.3398 57.7279 34.0269 56.867 34.3967C56.0213 34.7584 55.6911 35.5751 56.096 36.209C56.5023 36.8449 57.4587 37.0887 58.2938 36.8099C59.1451 36.5254 59.5433 35.7585 59.1552 35.0484Z" fill="#0990F7" fill-opacity="0.62"/>
<path d="M65.8334 41.2078C65.3448 40.4017 64.1562 39.7846 63.2653 39.8958C62.3607 40.006 62.0788 40.7176 62.5903 41.4511C63.1083 42.1942 64.1852 42.7321 65.0695 42.7148C65.9655 42.6965 66.3337 42.0332 65.8334 41.2078Z" fill="#0990F7" fill-opacity="0.62"/>
<path d="M37.1777 44.1743C36.7546 44.7528 36.5509 45.6778 36.7642 46.2294C36.9791 46.7876 37.5124 46.7642 37.9279 46.1979C38.3515 45.6219 38.4917 44.6959 38.2834 44.1403C38.0787 43.5973 37.5957 43.6029 37.1777 44.1743Z" fill="#0990F7" fill-opacity="0.62"/>
<path d="M45.7355 33.1725C45.1356 33.8023 44.7679 34.8049 44.9299 35.3957C45.0919 35.9859 45.702 35.9447 46.2851 35.3454C46.8738 34.7409 47.2288 33.7474 47.0759 33.1481C46.9225 32.5528 46.3313 32.5462 45.7355 33.1725Z" fill="#0990F7" fill-opacity="0.62"/>
<path d="M70.8968 56.6996C70.3517 55.6786 69.25 54.7582 68.5384 54.6988C67.8187 54.6384 67.7212 55.3688 68.2718 56.3232C68.8269 57.2837 69.8179 58.1665 70.5468 58.3117C71.2691 58.455 71.4473 57.7276 70.8968 56.6996Z" fill="#0990F7" fill-opacity="0.62"/>
<path d="M68.9381 46.2081C68.385 45.3157 67.1725 44.5472 66.3177 44.5528C65.4532 44.5568 65.2597 45.2425 65.8352 46.0593C66.4101 46.8745 67.5225 47.5734 68.3702 47.6582C69.2068 47.7415 69.4882 47.0955 68.9381 46.2081Z" fill="#0990F7" fill-opacity="0.62"/>
<path d="M70.009 61.1011C70.7059 61.2143 70.8821 60.4143 70.3503 59.3614C69.8276 58.3237 68.8113 57.4414 68.1388 57.3983C67.451 57.3546 67.3403 58.1241 67.8467 59.1019C68.3567 60.0847 69.3065 60.9863 70.009 61.1011Z" fill="#0990F7" fill-opacity="0.62"/>
<path d="M33.9603 59.0516C34.2549 59.3711 35.0569 59.3828 35.6827 59.0496C36.3115 58.7169 36.5086 58.1495 36.1632 57.83C35.8214 57.5146 35.1108 57.5446 34.5317 57.8737C33.9456 58.2084 33.6652 58.7326 33.9603 59.0516Z" fill="#0990F7" fill-opacity="0.62"/>
<path d="M71.4821 54.1818C70.9239 53.1746 69.777 52.2405 69.0126 52.1521C68.2487 52.0627 68.1339 52.7738 68.7104 53.7038C69.2762 54.6156 70.3104 55.4918 71.0692 55.6782C71.8352 55.8661 72.0439 55.1946 71.4821 54.1818Z" fill="#0990F7" fill-opacity="0.62"/>
<path d="M63.069 36.5738C62.655 35.8276 61.5538 35.3588 60.6446 35.5706C59.7222 35.7839 59.3357 36.5738 59.7669 37.2549C60.1997 37.9401 61.2699 38.3449 62.1679 38.1991C63.0619 38.0523 63.4896 37.3336 63.069 36.5738Z" fill="#0990F7" fill-opacity="0.62"/>
<path d="M40.0841 39.2149C40.1979 39.8082 40.6961 39.7675 41.1512 39.16C41.616 38.5399 41.8893 37.5397 41.7938 36.9236C41.6983 36.3192 41.2696 36.3009 40.7906 36.9196C40.3081 37.5443 39.9657 38.6105 40.0841 39.2149Z" fill="#0990F7" fill-opacity="0.62"/>
<path d="M42.9855 35.4348C43.0602 36.0505 43.592 36.0256 44.1223 35.4221C44.6561 34.8152 45.0187 33.8323 44.9624 33.1923C44.905 32.5503 44.4443 32.5051 43.8845 33.1324C43.3355 33.7465 42.9088 34.8187 42.9855 35.4348Z" fill="#0990F7" fill-opacity="0.62"/>
<path d="M37.4816 42.813C37.6116 43.4113 38.1033 43.4032 38.5203 42.8231C38.9388 42.242 39.1481 41.2907 39.0313 40.6817C38.9124 40.0686 38.5107 40.0265 38.0693 40.6182C37.639 41.1962 37.349 42.2146 37.4816 42.813Z" fill="#0990F7" fill-opacity="0.62"/>
<path d="M52.1998 29.9567C51.4374 30.4656 50.9691 31.4007 51.155 32.0036C51.3429 32.6152 52.1388 32.7046 52.9002 32.2469C53.6682 31.7842 54.1365 30.9141 53.9486 30.2477C53.7607 29.5813 52.9825 29.4325 52.1998 29.9567Z" fill="#0990F7" fill-opacity="0.62"/>
<path d="M72.2232 51.7941C71.6564 50.7884 70.4953 49.8685 69.6694 49.7563C68.8638 49.6465 68.6946 50.2952 69.2422 51.18C69.7984 52.077 70.9107 52.9852 71.727 53.199C72.5483 53.4128 72.7916 52.8003 72.2232 51.7941Z" fill="#0990F7" fill-opacity="0.62"/>
<path d="M33.676 52.2153C33.9274 52.6852 34.5502 52.6984 34.9931 52.2433C35.4436 51.7821 35.5432 51.0364 35.2704 50.5565C34.9976 50.079 34.4648 50.0704 34.029 50.5427C33.6054 51.005 33.4276 51.7536 33.676 52.2153Z" fill="#0990F7" fill-opacity="0.62"/>
<path d="M55.2104 30.5022C54.3566 30.9283 53.8771 31.8314 54.1407 32.4501C54.3992 33.0566 55.2693 33.2267 56.0932 32.8773C56.9389 32.5171 57.4377 31.708 57.1954 31.0142C56.9516 30.3147 56.0749 30.0694 55.2104 30.5022Z" fill="#0990F7" fill-opacity="0.62"/>
<path d="M33.4474 53.2661C32.972 53.6663 32.7637 54.3378 33.0335 54.7584C33.2955 55.1688 33.9492 55.2013 34.4435 54.8203C34.9514 54.4297 35.087 53.7552 34.796 53.3219C34.4998 52.8826 33.9315 52.8607 33.4474 53.2661Z" fill="#0990F7" fill-opacity="0.62"/>
<path d="M34.2855 49.3306C34.4912 49.8624 35.0535 49.8792 35.472 49.3758C35.8885 48.8765 36.0125 48.0765 35.8027 47.5467C35.5863 47.0012 35.122 46.9646 34.6949 47.4777C34.2814 47.9749 34.0798 48.8029 34.2855 49.3306Z" fill="#0990F7" fill-opacity="0.62"/>
<path d="M49.6611 29.6322C48.9418 30.2026 48.4486 31.2109 48.5853 31.8128C48.7194 32.4071 49.3903 32.4284 50.0755 31.9047C50.7846 31.3633 51.2423 30.4571 51.1239 29.7999C51.0096 29.1599 50.3722 29.0669 49.6611 29.6322Z" fill="#0990F7" fill-opacity="0.62"/>
<path d="M67.5107 42.2156C66.5675 42.1765 66.25 42.8154 66.7493 43.6109C67.2537 44.4134 68.4174 45.1535 69.3515 45.282C70.2769 45.4079 70.6594 44.8446 70.1738 43.9547C69.6755 43.0405 68.4824 42.2552 67.5107 42.2156Z" fill="#0990F7" fill-opacity="0.62"/>
<path d="M64.7145 37.3907C63.7362 37.4795 63.3461 38.179 63.7992 38.9119C64.2533 39.6459 65.3601 40.2036 66.3185 40.2092C67.3029 40.2148 67.7595 39.589 67.3039 38.7397C66.862 37.9154 65.7004 37.3002 64.7145 37.3907Z" fill="#0990F7" fill-opacity="0.62"/>
<path d="M58.6426 31.4141C57.7106 31.734 57.2281 32.5422 57.5227 33.2035C57.8142 33.8562 58.7823 34.1523 59.6915 33.9121C60.6302 33.6632 61.1584 32.9185 60.8562 32.177C60.5601 31.4506 59.5737 31.0935 58.6426 31.4141Z" fill="#0990F7" fill-opacity="0.62"/>
<path d="M32.251 56.9655C32.5172 57.3383 33.2217 57.3856 33.7829 57.0503C34.3467 56.7141 34.5154 56.1335 34.2152 55.7541C33.913 55.3732 33.2902 55.3544 32.7595 55.6947C32.2287 56.0365 31.9828 56.5907 32.251 56.9655Z" fill="#0990F7" fill-opacity="0.62"/>
<path d="M35.0029 46.137C35.1563 46.714 35.6291 46.746 36.0294 46.2289C36.4428 45.6956 36.6216 44.8184 36.4835 44.2267C36.3443 43.6329 35.9349 43.5673 35.5149 44.1027C35.0928 44.6416 34.8454 45.5483 35.0029 46.137Z" fill="#0990F7" fill-opacity="0.62"/>
<path d="M47.4687 29.4707C46.8307 30.0782 46.3487 31.0879 46.4106 31.6985C46.4741 32.3248 47.04 32.308 47.6845 31.7071C48.3189 31.1159 48.7756 30.1549 48.7273 29.5123C48.678 28.8764 48.1325 28.8388 47.4687 29.4707Z" fill="#0990F7" fill-opacity="0.62"/>
<path d="M73.3033 49.6042C72.7882 48.6295 71.5855 47.6685 70.6748 47.5013C69.7706 47.3342 69.5151 47.9143 70.0383 48.7935C70.5762 49.6971 71.6723 50.588 72.5714 50.8506C73.4709 51.1137 73.8193 50.5789 73.3033 49.6042Z" fill="#0990F7" fill-opacity="0.62"/>
<path d="M39.3363 36.8137C38.8665 37.4217 38.4937 38.4513 38.5389 39.1101C38.5826 39.7556 38.9914 39.7699 39.4252 39.1771C39.8686 38.5732 40.1769 37.5792 40.1587 36.929C40.1394 36.2926 39.7919 36.2245 39.3363 36.8137Z" fill="#0990F7" fill-opacity="0.62"/>
<path d="M42.3292 33.035C41.8111 33.6521 41.3697 34.6873 41.3672 35.3471C41.3647 36.0277 41.7908 36.0384 42.2926 35.4151C42.7935 34.7944 43.1841 33.7816 43.1993 33.1249C43.2135 32.4813 42.8433 32.4229 42.3292 33.035Z" fill="#0990F7" fill-opacity="0.62"/>
<path d="M62.5016 32.8178C61.4979 33.0063 60.9966 33.7494 61.3364 34.4463C61.6828 35.1548 62.6977 35.5891 63.6729 35.4855C64.6725 35.3788 65.2525 34.6962 64.9234 33.9119C64.6029 33.1475 63.491 32.6304 62.5016 32.8178Z" fill="#0990F7" fill-opacity="0.62"/>
<path d="M32.8469 58.9808C33.4747 58.7223 33.7185 58.2118 33.431 57.8847C33.142 57.5566 32.4527 57.522 31.8646 57.7851C31.2728 58.0513 30.9625 58.5069 31.2159 58.8371C31.4673 59.1662 32.2135 59.2424 32.8469 58.9808Z" fill="#0990F7" fill-opacity="0.62"/>
<path d="M45.792 29.1942C45.2003 29.7823 44.6446 30.8668 44.6086 31.5281C44.571 32.1945 45.0367 32.2199 45.6102 31.6302C46.1806 31.043 46.6814 30.0221 46.7337 29.3577C46.783 28.7086 46.3726 28.6156 45.792 29.1942Z" fill="#0990F7" fill-opacity="0.62"/>
<path d="M36.6059 40.429C36.1828 40.9755 35.8562 41.9756 35.9318 42.611C36.0055 43.2465 36.4367 43.2901 36.8365 42.735C37.2286 42.1915 37.4744 41.2554 37.4302 40.624C37.3845 39.9886 37.028 39.885 36.6059 40.429Z" fill="#0990F7" fill-opacity="0.62"/>
<path d="M69.2002 39.9022C68.1594 39.8108 67.7109 40.4538 68.1721 41.2615C68.6242 42.0533 69.7686 42.8025 70.7646 42.9777C71.7723 43.154 72.3026 42.5902 71.8719 41.6962C71.4493 40.8206 70.2247 39.9906 69.2002 39.9022Z" fill="#0990F7" fill-opacity="0.62"/>
<path d="M54.3918 26.4647C53.5832 26.9462 52.9991 27.8752 53.0905 28.4959C53.1829 29.1278 53.9433 29.2608 54.7504 28.8321C55.5661 28.3984 56.1533 27.5303 56.0604 26.8451C55.9679 26.1625 55.2167 25.972 54.3918 26.4647Z" fill="#0990F7" fill-opacity="0.62"/>
<path d="M32.0783 50.2922C31.6446 50.6768 31.4079 51.4158 31.606 51.9044C31.7985 52.3829 32.3501 52.4763 32.7899 52.1122C33.2374 51.7419 33.402 51.0155 33.2004 50.5112C32.9957 50.0012 32.5202 49.9022 32.0783 50.2922Z" fill="#0990F7" fill-opacity="0.62"/>
<path d="M31.2348 53.0405C30.7736 53.3762 30.5338 53.9913 30.7436 54.4205C30.9559 54.8579 31.5878 54.961 32.0764 54.6344C32.5711 54.3052 32.7352 53.6723 32.4939 53.2259C32.2511 52.7799 31.7072 52.6981 31.2348 53.0405Z" fill="#0990F7" fill-opacity="0.62"/>
<path d="M57.4264 27.2123C56.5239 27.6064 55.9199 28.5111 56.0931 29.1495C56.2633 29.7753 57.1054 29.9881 57.9816 29.6691C58.8735 29.3436 59.4988 28.5273 59.3495 27.8162C59.1991 27.1016 58.3377 26.8125 57.4264 27.2123Z" fill="#0990F7" fill-opacity="0.62"/>
<path d="M68.0385 37.7005C69.0854 37.7477 69.6807 37.1443 69.3216 36.2996C68.9696 35.4712 67.8364 34.817 66.7738 34.854C65.7066 34.8901 65.1626 35.587 65.539 36.3311C65.9078 37.0595 67.0161 37.6538 68.0385 37.7005Z" fill="#0990F7" fill-opacity="0.62"/>
<path d="M51.9039 25.917C51.1461 26.4458 50.5208 27.4606 50.5488 28.0945C50.5757 28.7167 51.203 28.7919 51.9313 28.3068C52.6815 27.8065 53.2687 26.8902 53.2575 26.2055C53.2464 25.5356 52.6582 25.3898 51.9039 25.917Z" fill="#0990F7" fill-opacity="0.62"/>
<path d="M32.95 47.1911C32.532 47.6229 32.2745 48.4564 32.433 49.0075C32.5864 49.5464 33.0831 49.6383 33.4905 49.2188C33.91 48.7875 34.0832 47.9906 33.9273 47.4253C33.7744 46.8701 33.3676 46.7614 32.95 47.1911Z" fill="#0990F7" fill-opacity="0.62"/>
<path d="M30.3409 55.4098C29.8142 55.674 29.5237 56.1819 29.736 56.5664C29.9508 56.957 30.635 57.0738 31.1978 56.8031C31.7535 56.5369 31.9506 56.0112 31.7002 55.6196C31.4492 55.229 30.8748 55.1432 30.3409 55.4098Z" fill="#0990F7" fill-opacity="0.62"/>
<path d="M60.94 28.355C59.9546 28.643 59.3528 29.443 59.5574 30.115C59.7652 30.7931 60.7404 31.1217 61.7248 30.888C62.697 30.6559 63.3126 29.9336 63.1003 29.1915C62.889 28.451 61.9315 28.0639 60.94 28.355Z" fill="#0990F7" fill-opacity="0.62"/>
<path d="M41.0536 32.7651C40.569 33.3548 40.0824 34.4194 40.0123 35.1076C39.9392 35.8065 40.3034 35.8563 40.7676 35.2564C41.2395 34.6479 41.6443 33.6524 41.7367 32.9474C41.8256 32.2647 41.5457 32.1667 41.0536 32.7651Z" fill="#0990F7" fill-opacity="0.62"/>
<path d="M38.0862 36.4786C37.6403 37.0374 37.2228 38.0659 37.1969 38.7541C37.1689 39.4409 37.5235 39.5181 37.9405 38.9599C38.3631 38.3961 38.6983 37.4351 38.7526 36.7422C38.806 36.0489 38.5358 35.9164 38.0862 36.4786Z" fill="#0990F7" fill-opacity="0.62"/>
<path d="M44.4011 28.9109C43.8454 29.5067 43.2776 30.5713 43.1582 31.2758C43.0393 31.9737 43.4061 32.029 43.9333 31.4419C44.4682 30.8466 44.9695 29.8551 45.1102 29.1486C45.2509 28.4385 44.9578 28.3141 44.4011 28.9109Z" fill="#0990F7" fill-opacity="0.62"/>
<path d="M49.8318 25.5239C49.1359 26.0978 48.5163 27.1193 48.4655 27.7725C48.4147 28.4145 48.914 28.4648 49.5768 27.9309C50.262 27.3798 50.8482 26.4402 50.9264 25.7529C51.0041 25.0667 50.5312 24.9458 49.8318 25.5239Z" fill="#0990F7" fill-opacity="0.62"/>
<path d="M33.9749 43.763C33.569 44.2323 33.2831 45.0897 33.3659 45.7068C33.4492 46.3331 33.8779 46.4458 34.2766 45.9775C34.6814 45.5021 34.8988 44.6549 34.8216 44.0347C34.7434 43.4125 34.3914 43.2825 33.9749 43.763Z" fill="#0990F7" fill-opacity="0.62"/>
<path d="M64.8876 29.9988C63.8361 30.1725 63.249 30.9034 63.5233 31.6135C63.7991 32.3246 64.8053 32.7716 65.847 32.6806C66.902 32.5882 67.5821 31.8984 67.3028 31.1127C67.028 30.3401 65.9349 29.8246 64.8876 29.9988Z" fill="#0990F7" fill-opacity="0.62"/>
<path d="M29.9993 58.6401C30.6342 58.4643 30.9294 58.0275 30.7109 57.6821C30.489 57.3316 29.8343 57.2148 29.2293 57.4023C28.6315 57.5887 28.2795 57.9828 28.4771 58.3236C28.6741 58.6665 29.3634 58.8168 29.9993 58.6401Z" fill="#0990F7" fill-opacity="0.62"/>
<path d="M72.7873 40.6849C73.8311 40.8586 74.4553 40.3339 74.1191 39.475C73.7773 38.6013 72.5069 37.7257 71.4083 37.6225C70.2949 37.5159 69.755 38.1218 70.1506 38.9315C70.5458 39.7401 71.7059 40.5035 72.7873 40.6849Z" fill="#0990F7" fill-opacity="0.62"/>
<path d="M35.3052 39.9565C34.8897 40.4431 34.5194 41.4259 34.5346 42.0964C34.5483 42.7531 34.907 42.8771 35.293 42.3991C35.6841 41.9156 35.9843 40.9591 35.9939 40.2968C36.0015 39.6492 35.711 39.482 35.3052 39.9565Z" fill="#0990F7" fill-opacity="0.62"/>
<path d="M48.2321 25.0916C47.617 25.6524 46.9623 26.7063 46.8129 27.388C46.6575 28.0925 47.0573 28.1692 47.6683 27.6059C48.2631 27.0578 48.869 26.0709 49.0438 25.372C49.2175 24.669 48.8574 24.5197 48.2321 25.0916Z" fill="#0990F7" fill-opacity="0.62"/>
<path d="M27.7816 59.0126C27.1127 59.1136 26.6515 59.4174 26.8216 59.7089C26.9872 59.9939 27.7354 60.1813 28.4374 60.0934C29.1586 60.004 29.5421 59.6581 29.3369 59.3549C29.1292 59.0486 28.4628 58.911 27.7816 59.0126Z" fill="#0990F7" fill-opacity="0.62"/>
<path d="M69.3594 32.2712C68.2435 32.2951 67.5954 32.9787 67.9006 33.7213C68.1998 34.4497 69.2944 35.0648 70.3707 35.1354C71.476 35.207 72.1886 34.6239 71.9148 33.7818C71.641 32.9371 70.4885 32.2458 69.3594 32.2712Z" fill="#0990F7" fill-opacity="0.62"/>
<path d="M40.0398 32.233C39.5842 32.775 39.062 33.8371 38.9243 34.5563C38.7831 35.2888 39.0661 35.4208 39.4968 34.8814C39.9326 34.3359 40.3801 33.3287 40.5477 32.5896C40.7148 31.8501 40.5116 31.6723 40.0398 32.233Z" fill="#0990F7" fill-opacity="0.62"/>
<path d="M43.3314 28.4379C42.8163 29.0099 42.2002 30.1278 42.0285 30.8404C41.8584 31.5404 42.1398 31.6354 42.6111 31.0909C43.0982 30.5286 43.63 29.5066 43.8454 28.7661C44.0602 28.0235 43.8535 27.8579 43.3314 28.4379Z" fill="#0990F7" fill-opacity="0.62"/>
<path d="M30.1669 49.774C29.729 50.097 29.4502 50.7929 29.6026 51.2927C29.7504 51.7848 30.2608 51.9372 30.6916 51.6289C31.1411 51.3079 31.3341 50.643 31.1787 50.1168C31.0263 49.6043 30.6042 49.4524 30.1669 49.774Z" fill="#0990F7" fill-opacity="0.62"/>
<path d="M57.2105 22.7969C56.345 23.2337 55.6232 24.181 55.6349 24.8261C55.6456 25.4595 56.3435 25.6286 57.18 25.2431C58.0501 24.8413 58.7409 23.9966 58.7409 23.285C58.7409 22.5917 58.073 22.3606 57.2105 22.7969Z" fill="#0990F7" fill-opacity="0.62"/>
<path d="M60.2325 23.8032C59.2974 24.1633 58.599 25.0217 58.6655 25.6739C58.7336 26.3377 59.5747 26.5861 60.5205 26.2625C61.4581 25.9405 62.1377 25.169 62.0626 24.4513C61.9874 23.7381 61.1808 23.4364 60.2325 23.8032Z" fill="#0990F7" fill-opacity="0.62"/>
<path d="M29.119 52.5001C28.6471 52.7541 28.3551 53.3123 28.5039 53.7639C28.6486 54.2083 29.2145 54.3896 29.7031 54.1519C30.211 53.9051 30.433 53.3296 30.2512 52.8608C30.0719 52.3991 29.5969 52.2436 29.119 52.5001Z" fill="#0990F7" fill-opacity="0.62"/>
<path d="M54.7188 22.0507C53.9341 22.5413 53.2245 23.4973 53.1351 24.1601C53.0462 24.8169 53.6186 24.9449 54.3912 24.4872C55.1754 24.0215 55.8576 23.1448 55.95 22.4484C56.042 21.75 55.5071 21.557 54.7188 22.0507Z" fill="#0990F7" fill-opacity="0.62"/>
<path d="M31.2725 46.6423C30.858 47.0121 30.569 47.773 30.665 48.3444C30.7589 48.9102 31.2074 49.0733 31.6138 48.7121C32.0272 48.3449 32.2411 47.6099 32.1481 47.0304C32.0542 46.4468 31.69 46.2705 31.2725 46.6423Z" fill="#0990F7" fill-opacity="0.62"/>
<path d="M37.0335 35.838C36.5982 36.3368 36.1462 37.3303 36.0527 38.0663C35.9608 38.7784 36.2416 38.9501 36.6307 38.4782C37.0401 37.9825 37.4205 37.0418 37.544 36.3084C37.6684 35.5683 37.4658 35.3438 37.0335 35.838Z" fill="#0990F7" fill-opacity="0.62"/>
<path d="M47.0288 24.587C46.4579 25.1452 45.7981 26.1763 45.5604 26.9067C45.3201 27.6437 45.6117 27.756 46.1683 27.1998C46.7342 26.6345 47.3467 25.6465 47.5977 24.9116C47.8491 24.1756 47.6159 24.0131 47.0288 24.587Z" fill="#0990F7" fill-opacity="0.62"/>
<path d="M27.9494 54.8257C27.4262 55.0162 27.1113 55.4586 27.2748 55.8517C27.4409 56.253 28.0499 56.4359 28.6127 56.2469C29.1562 56.0646 29.4056 55.5912 29.2207 55.195C29.0297 54.7897 28.4852 54.6317 27.9494 54.8257Z" fill="#0990F7" fill-opacity="0.62"/>
<path d="M63.8445 25.1721C62.7961 25.4332 62.1028 26.2169 62.2476 26.9092C62.3908 27.5878 63.2711 27.9301 64.2808 27.7371C65.3135 27.5395 66.0545 26.8178 65.9194 26.0666C65.7874 25.3341 64.8563 24.9191 63.8445 25.1721Z" fill="#0990F7" fill-opacity="0.62"/>
<path d="M32.6563 45.39C33.0423 44.9831 33.3013 44.1511 33.2765 43.5274C33.25 42.9041 32.9346 42.7132 32.5318 43.1236C32.1255 43.538 31.807 44.3741 31.8507 45.0085C31.8934 45.6424 32.2652 45.8019 32.6563 45.39Z" fill="#0990F7" fill-opacity="0.62"/>
<path d="M52.7528 21.4113C52.0392 21.9345 51.3271 22.9143 51.1574 23.5995C50.9867 24.2902 51.418 24.4005 52.1199 23.8961C52.8178 23.3947 53.5147 22.4586 53.694 21.7643C53.8718 21.0745 53.4548 20.8962 52.7528 21.4113Z" fill="#0990F7" fill-opacity="0.62"/>
<path d="M67.9501 27.06C66.8794 27.1966 66.1652 27.9143 66.3343 28.6133C66.5101 29.3345 67.5214 29.8323 68.6063 29.7622C69.6593 29.6931 70.4344 29.0425 70.2866 28.2775C70.1372 27.5055 69.0355 26.9193 67.9501 27.06Z" fill="#0990F7" fill-opacity="0.62"/>
<path d="M27.1811 57.965C27.8033 57.869 28.1411 57.4703 27.9562 57.1259C27.7744 56.7886 27.176 56.6078 26.6 56.7084C26.0088 56.813 25.6091 57.1665 25.764 57.5104C25.9143 57.8462 26.568 58.061 27.1811 57.965Z" fill="#0990F7" fill-opacity="0.62"/>
<path d="M41.6035 30.4779C42.0525 29.9624 42.6163 28.9358 42.9002 28.1653C43.1832 27.3943 43.0628 27.1555 42.5802 27.6721C42.1074 28.178 41.4537 29.2904 41.2058 30.0523C40.9554 30.8167 41.156 30.9919 41.6035 30.4779Z" fill="#0990F7" fill-opacity="0.62"/>
<path d="M33.9158 41.6929C34.2977 41.2642 34.6208 40.3738 34.6822 39.6825C34.7432 38.9927 34.4958 38.7692 34.0885 39.2157C33.6918 39.6515 33.3022 40.5704 33.2616 41.2373C33.2194 41.9189 33.5384 42.117 33.9158 41.6929Z" fill="#0990F7" fill-opacity="0.62"/>
<path d="M50.3386 23.3482C50.9608 22.8443 51.6689 21.8665 51.935 21.1463C52.2007 20.4245 51.9218 20.2396 51.2778 20.7725C50.6403 21.2992 49.8749 22.3597 49.6372 23.049C49.4035 23.7235 49.7316 23.8403 50.3386 23.3482Z" fill="#0990F7" fill-opacity="0.62"/>
<path d="M38.4949 34.1491C38.9099 33.6412 39.3752 32.6731 39.5976 31.9168C39.8247 31.1412 39.6799 30.8994 39.2223 31.4165C38.7789 31.9178 38.2267 32.9682 38.0408 33.7118C37.8493 34.4722 38.0804 34.6576 38.4949 34.1491Z" fill="#0990F7" fill-opacity="0.62"/>
<path d="M45.0795 26.6115C45.5895 26.0797 46.2345 25.0547 46.5591 24.2867C46.8761 23.537 46.746 23.3268 46.2188 23.8499C45.689 24.3751 44.953 25.4961 44.6635 26.2468C44.3786 26.9798 44.5853 27.1271 45.0795 26.6115Z" fill="#0990F7" fill-opacity="0.62"/>
<path d="M25.3222 59.2488C26.046 59.2433 26.4727 58.9761 26.3345 58.6749C26.1963 58.3747 25.6066 58.168 24.9524 58.1791C24.2525 58.1913 23.7466 58.4143 23.8517 58.7175C23.9498 59.0015 24.6314 59.2549 25.3222 59.2488Z" fill="#0990F7" fill-opacity="0.62"/>
<path d="M60.2852 21.4099C61.1512 21.0406 61.9172 20.2101 61.9827 19.526C62.0487 18.8408 61.4041 18.5919 60.534 19.0002C59.6645 19.4076 58.9244 20.2721 58.8513 20.9339C58.7797 21.5942 59.4054 21.7847 60.2852 21.4099Z" fill="#0990F7" fill-opacity="0.62"/>
<path d="M28.6325 50.8113C29.0658 50.567 29.305 49.958 29.2131 49.4404C29.1196 48.9244 28.728 48.7065 28.2993 48.9584C27.8671 49.2129 27.572 49.8143 27.6659 50.3283C27.7584 50.8438 28.1998 51.0556 28.6325 50.8113Z" fill="#0990F7" fill-opacity="0.62"/>
<path d="M27.4242 53.3055C27.9017 53.1252 28.1556 52.5954 28.0271 52.1439C27.9007 51.7025 27.4583 51.4912 27.0057 51.67C26.5353 51.8564 26.2204 52.3577 26.3337 52.8103C26.4459 53.2664 26.9427 53.4879 27.4242 53.3055Z" fill="#0990F7" fill-opacity="0.62"/>
<path d="M63.6269 22.6867C64.5514 22.4094 65.327 21.6541 65.3483 20.9587C65.3696 20.2522 64.5849 19.8987 63.6396 20.2202C62.6801 20.5448 61.9284 21.3595 61.9238 22.0315C61.9208 22.7035 62.6654 22.9742 63.6269 22.6867Z" fill="#0990F7" fill-opacity="0.62"/>
<path d="M49.0776 22.6625C49.65 22.1418 50.3728 21.1407 50.7045 20.4179C51.0276 19.7119 50.8594 19.5113 50.2936 20.0085C49.7044 20.5256 48.9445 21.5557 48.6128 22.2993C48.2786 23.0475 48.4996 23.1882 49.0776 22.6625Z" fill="#0990F7" fill-opacity="0.62"/>
<path d="M35.5483 37.5762C35.9364 37.1348 36.3514 36.1936 36.5109 35.4642C36.6653 34.7541 36.4976 34.4885 36.0959 34.9055C35.6773 35.3403 35.2014 36.3023 35.0648 37.0479C34.9261 37.8002 35.1587 38.0196 35.5483 37.5762Z" fill="#0990F7" fill-opacity="0.62"/>
<path d="M29.8125 47.868C30.2107 47.5755 30.4733 46.8496 30.4251 46.2787C30.3768 45.723 30.038 45.4924 29.6449 45.784C29.2375 46.0867 28.9226 46.8085 28.9805 47.383C29.0364 47.9447 29.4209 48.1555 29.8125 47.868Z" fill="#0990F7" fill-opacity="0.62"/>
<path d="M57.5028 20.4387C58.2657 20.0258 59.0321 19.1582 59.2084 18.4791C59.3852 17.7924 58.8732 17.5562 58.0935 18.0047C57.3224 18.4466 56.5585 19.3558 56.3879 20.0136C56.2116 20.6942 56.7124 20.8654 57.5028 20.4387Z" fill="#0990F7" fill-opacity="0.62"/>
<path d="M26.0551 55.3495C26.5782 55.2403 26.8698 54.8065 26.7311 54.4185C26.5904 54.0279 26.08 53.8079 25.5786 53.9268C25.0732 54.0477 24.7258 54.4505 24.8462 54.8355C24.9646 55.219 25.5314 55.4597 26.0551 55.3495Z" fill="#0990F7" fill-opacity="0.62"/>
<path d="M67.5324 24.3988C68.5371 24.2256 69.3584 23.4998 69.2964 22.7811C69.2334 22.0603 68.3121 21.6149 67.3079 21.8434C66.293 22.0725 65.5245 22.8435 65.5865 23.5171C65.649 24.1896 66.5216 24.572 67.5324 24.3988Z" fill="#0990F7" fill-opacity="0.62"/>
<path d="M55.3067 19.6236C56.0005 19.1772 56.7807 18.2472 57.0317 17.5533C57.2816 16.8595 56.9199 16.6512 56.2169 17.1323C55.5277 17.6031 54.7409 18.559 54.4884 19.2239C54.2284 19.9086 54.6083 20.0727 55.3067 19.6236Z" fill="#0990F7" fill-opacity="0.62"/>
<path d="M44.3759 25.7147C44.8457 25.2103 45.4928 24.2142 45.8727 23.4386C46.2623 22.6417 46.2039 22.373 45.6939 22.887C45.1977 23.3873 44.4683 24.4626 44.1219 25.2301C43.7653 26.0159 43.9035 26.2221 44.3759 25.7147Z" fill="#0990F7" fill-opacity="0.62"/>
<path d="M40.8956 29.5009C41.3218 29.0194 41.8937 28.0325 42.2229 27.2498C42.5612 26.4442 42.4941 26.1532 42.0233 26.6454C41.5671 27.1228 40.9124 28.1864 40.6193 28.961C40.3181 29.7539 40.4664 29.9865 40.8956 29.5009Z" fill="#0990F7" fill-opacity="0.62"/>
<path d="M31.1037 44.473C31.4806 44.1434 31.7747 43.3541 31.7929 42.7141C31.8102 42.0903 31.5456 41.843 31.159 42.1757C30.7695 42.5119 30.4043 43.3464 30.4053 43.9651C30.4048 44.5695 30.7375 44.7935 31.1037 44.473Z" fill="#0990F7" fill-opacity="0.62"/>
<path d="M71.9709 26.6601C73.0756 26.62 73.903 26.0084 73.8081 25.2354C73.7141 24.4552 72.7582 23.9046 71.6427 24.0087C70.5456 24.1098 69.7395 24.7975 69.8279 25.4944C69.9163 26.1857 70.8803 26.6987 71.9709 26.6601Z" fill="#0990F7" fill-opacity="0.62"/>
<path d="M24.3612 56.9273C24.9732 56.9004 25.3151 56.5926 25.183 56.2457C25.0504 55.8972 24.5273 55.6753 23.9416 55.7169C23.3697 55.7586 22.9537 56.0496 23.0705 56.3762C23.1853 56.6993 23.774 56.9532 24.3612 56.9273Z" fill="#0990F7" fill-opacity="0.62"/>
<path d="M37.6577 33.0731C38.0539 32.6459 38.5415 31.7337 38.8158 30.9545C39.0906 30.1723 39.0169 29.8396 38.604 30.2444C38.1687 30.6716 37.6039 31.6509 37.3565 32.4519C37.1158 33.2295 37.2691 33.4921 37.6577 33.0731Z" fill="#0990F7" fill-opacity="0.62"/>
<path d="M32.6382 40.6213C33.012 40.2622 33.3589 39.4571 33.4692 38.7648C33.5799 38.0705 33.3889 37.7728 33.0013 38.1228C32.595 38.4895 32.1795 39.3454 32.0947 40.0479C32.0119 40.7326 32.2684 40.9769 32.6382 40.6213Z" fill="#0990F7" fill-opacity="0.62"/>
<path d="M53.715 18.7822C54.3474 18.3088 55.093 17.4072 55.4338 16.6992C55.7741 15.9916 55.5679 15.7727 54.9401 16.241C54.2874 16.7271 53.4823 17.7054 53.1481 18.417C52.8231 19.1108 53.0836 19.2551 53.715 18.7822Z" fill="#0990F7" fill-opacity="0.62"/>
<path d="M48.2468 21.7971C48.7791 21.2912 49.5014 20.3058 49.9123 19.5393C50.31 18.7962 50.2278 18.5778 49.6833 19.0801C49.1423 19.5789 48.3748 20.6019 47.9873 21.3562C47.5982 22.1109 47.7303 22.2882 48.2468 21.7971Z" fill="#0990F7" fill-opacity="0.62"/>
<path d="M22.2925 58.0498C22.9487 58.0991 23.3789 57.8782 23.2687 57.5937C23.1575 57.3083 22.5642 57.0497 21.942 57.0086C21.3152 56.9685 20.8342 57.1452 20.9139 57.4261C20.9927 57.707 21.6352 58.0016 22.2925 58.0498Z" fill="#0990F7" fill-opacity="0.62"/>
<path d="M34.5835 36.3106C34.9548 35.9286 35.3692 35.0707 35.5622 34.3388C35.7552 33.6049 35.6278 33.2996 35.2311 33.6714C34.8328 34.0442 34.3229 35.0118 34.168 35.7285C34.0156 36.4284 34.2213 36.6839 34.5835 36.3106Z" fill="#0990F7" fill-opacity="0.62"/>
<path d="M52.6447 17.8681C53.1988 17.4165 53.9546 16.4972 54.3742 15.7693C54.7993 15.0323 54.7247 14.7804 54.1649 15.2223C53.6082 15.6616 52.7432 16.6998 52.3394 17.4221C51.9458 18.1241 52.0992 18.3125 52.6447 17.8681Z" fill="#0990F7" fill-opacity="0.62"/>
<path d="M26.6216 49.6387C27.0366 49.4538 27.2885 48.918 27.2327 48.4151C27.1758 47.9138 26.8334 47.6832 26.4159 47.8904C26.0187 48.0885 25.7144 48.6244 25.7617 49.0937C25.8089 49.5742 26.2122 49.821 26.6216 49.6387Z" fill="#0990F7" fill-opacity="0.62"/>
<path d="M43.9662 24.4721C44.4066 24.0286 45.0557 23.0783 45.4879 22.2702C45.9232 21.4565 45.9288 21.1472 45.4539 21.5992C44.9846 22.0462 44.2476 23.088 43.8605 23.8758C43.4816 24.6437 43.5461 24.8952 43.9662 24.4721Z" fill="#0990F7" fill-opacity="0.62"/>
<path d="M63.9608 17.3472C64.7897 17.0297 65.5516 16.2927 65.7004 15.6314C65.8559 14.9431 65.322 14.6541 64.4814 15C63.6443 15.3434 62.8433 16.1637 62.6935 16.8016C62.5446 17.4371 63.1171 17.6697 63.9608 17.3472Z" fill="#0990F7" fill-opacity="0.62"/>
<path d="M67.3587 18.8512C68.2729 18.6038 69.0455 17.9105 69.1131 17.236C69.1832 16.5406 68.4959 16.2039 67.5603 16.4985C66.6577 16.7819 65.8908 17.527 65.812 18.1614C65.7318 18.81 66.4195 19.1046 67.3587 18.8512Z" fill="#0990F7" fill-opacity="0.62"/>
<path d="M25.1544 52.1139C25.5998 51.9941 25.8624 51.5613 25.7877 51.1301C25.7105 50.6857 25.321 50.4474 24.8689 50.5846C24.4341 50.7166 24.1177 51.1448 24.1822 51.5603C24.2472 51.9849 24.6977 52.2369 25.1544 52.1139Z" fill="#0990F7" fill-opacity="0.62"/>
<path d="M47.8536 20.6121C48.3285 20.155 49.0482 19.1985 49.5094 18.428C49.9701 17.658 49.9737 17.3776 49.4759 17.8317C48.9766 18.2868 48.2025 19.2889 47.7601 20.0686C47.3172 20.8503 47.3751 21.0723 47.8536 20.6121Z" fill="#0990F7" fill-opacity="0.62"/>
<path d="M61.2305 16.1179C61.9858 15.7461 62.7573 14.9476 62.9742 14.2883C63.1911 13.6306 62.7741 13.3949 62.028 13.7875C61.2757 14.1822 60.5001 15.0182 60.2736 15.6608C60.0475 16.3038 60.4722 16.4912 61.2305 16.1179Z" fill="#0990F7" fill-opacity="0.62"/>
<path d="M28.0594 46.6519C28.4394 46.4228 28.7131 45.8072 28.7101 45.2541C28.7065 44.6999 28.42 44.4393 28.035 44.6791C27.6449 44.9224 27.3275 45.5415 27.3382 46.0891C27.3478 46.6356 27.679 46.881 28.0594 46.6519Z" fill="#0990F7" fill-opacity="0.62"/>
<path d="M40.4127 28.1283C40.8191 27.7103 41.3951 26.7782 41.7587 25.9879C42.1219 25.1965 42.1001 24.8638 41.6668 25.2768C41.2285 25.6948 40.5956 26.666 40.2593 27.4675C39.9226 28.269 40.0079 28.5458 40.4127 28.1283Z" fill="#0990F7" fill-opacity="0.62"/>
<path d="M71.3692 20.8044C72.3744 20.6556 73.2019 19.9938 73.1958 19.2928C73.1902 18.5924 72.3602 18.1678 71.3621 18.3714C70.3595 18.5751 69.6032 19.2756 69.6174 19.943C69.6326 20.5891 70.3854 20.9497 71.3692 20.8044Z" fill="#0990F7" fill-opacity="0.62"/>
<path d="M23.4681 54.0915C23.9801 54.0555 24.3021 53.7157 24.2275 53.3372C24.1523 52.9599 23.7129 52.7003 23.2258 52.7541C22.7311 52.809 22.3761 53.1305 22.4477 53.5018C22.5167 53.864 22.9734 54.1261 23.4681 54.0915Z" fill="#0990F7" fill-opacity="0.62"/>
<path d="M19.6863 58.6934C20.403 58.8203 20.9033 58.7106 20.8414 58.4755C20.7769 58.2342 20.1628 57.9508 19.4593 57.8268C18.7467 57.7019 18.2077 57.7735 18.2672 58.0214C18.322 58.2586 18.959 58.5654 19.6863 58.6934Z" fill="#0990F7" fill-opacity="0.62"/>
<path d="M29.6279 43.1647C29.9804 42.9 30.2948 42.1955 30.3553 41.5926C30.4152 40.9821 30.1653 40.689 29.7879 40.9811C29.4176 41.2686 29.0687 41.9868 29.0326 42.5821C28.9955 43.1784 29.2729 43.4313 29.6279 43.1647Z" fill="#0990F7" fill-opacity="0.62"/>
<path d="M59.164 15.0405C59.8233 14.6443 60.6111 13.7945 60.9118 13.1424C61.217 12.477 60.9097 12.2489 60.2347 12.6796C59.5698 13.1022 58.7871 13.9769 58.4884 14.6235C58.1898 15.2685 58.4971 15.4407 59.164 15.0405Z" fill="#0990F7" fill-opacity="0.62"/>
<path d="M52.117 16.7034C52.6148 16.2758 53.4021 15.3203 53.876 14.5818C54.3341 13.8661 54.3306 13.5969 53.8328 14.0134C53.3249 14.4381 52.4659 15.4611 52.0139 16.1899C51.5735 16.899 51.635 17.1184 52.117 16.7034Z" fill="#0990F7" fill-opacity="0.62"/>
<path d="M21.5528 55.5473C22.0927 55.5762 22.4528 55.3304 22.3822 55.0175C22.3086 54.6945 21.8255 54.4222 21.2922 54.406C20.7756 54.3912 20.3627 54.6122 20.4099 54.9098C20.4572 55.2151 21.0007 55.5183 21.5528 55.5473Z" fill="#0990F7" fill-opacity="0.62"/>
<path d="M37.0273 31.5599C37.3981 31.1946 37.9167 30.2712 38.1976 29.5119C38.4693 28.7764 38.4002 28.4472 38.0086 28.8084C37.6094 29.1761 37.0243 30.161 36.7794 30.9041C36.5402 31.6284 36.6677 31.9139 37.0273 31.5599Z" fill="#0990F7" fill-opacity="0.62"/>
<path d="M31.4617 39.1453C31.8213 38.8395 32.1713 38.1005 32.2947 37.4316C32.4141 36.784 32.247 36.5087 31.8767 36.8139C31.5019 37.1232 31.0864 37.9253 30.9914 38.5602C30.8974 39.1819 31.1194 39.4359 31.4617 39.1453Z" fill="#0990F7" fill-opacity="0.62"/>
<path d="M57.7271 13.9538C58.3153 13.555 59.0543 12.752 59.4465 12.079C59.8579 11.3735 59.7319 11.1261 59.1305 11.5396C58.5368 11.948 57.7144 12.8541 57.335 13.5159C56.9668 14.159 57.1511 14.3434 57.7271 13.9538Z" fill="#0990F7" fill-opacity="0.62"/>
<path d="M16.485 58.8663C17.2474 59.0604 17.8203 59.0355 17.7802 58.8404C17.7375 58.6383 17.0879 58.3269 16.3326 58.1344C15.591 57.946 15.012 57.9348 15.0348 58.1375C15.0562 58.3371 15.7053 58.6688 16.485 58.8663Z" fill="#0990F7" fill-opacity="0.62"/>
<path d="M19.154 56.4703C19.7575 56.5775 20.1912 56.4394 20.1526 56.1823C20.1125 55.9213 19.5863 55.6282 18.9961 55.5342C18.4125 55.4418 17.9599 55.5525 17.9929 55.808C18.0249 56.0645 18.543 56.3621 19.154 56.4703Z" fill="#0990F7" fill-opacity="0.62"/>
<path d="M47.8412 19.033C48.2679 18.6287 49.014 17.6631 49.4813 16.9246C49.9512 16.1804 50.0009 15.8584 49.5519 16.2577C49.0948 16.6645 48.3314 17.6301 47.8656 18.4062C47.4018 19.1788 47.4069 19.4444 47.8412 19.033Z" fill="#0990F7" fill-opacity="0.62"/>
<path d="M43.8804 22.7773C44.274 22.3988 44.9496 21.446 45.3767 20.6876C45.8009 19.9323 45.8359 19.5758 45.4169 19.9491C44.9897 20.3301 44.2862 21.2916 43.8738 22.0783C43.4603 22.8661 43.4786 23.1628 43.8804 22.7773Z" fill="#0990F7" fill-opacity="0.62"/>
<path d="M56.9391 12.7336C57.4405 12.3613 58.2049 11.5161 58.6549 10.839C59.1075 10.1569 59.0867 9.89428 58.5782 10.2717C58.0835 10.6384 57.2495 11.5527 56.8096 12.2155C56.3697 12.8763 56.4409 13.1034 56.9391 12.7336Z" fill="#0990F7" fill-opacity="0.62"/>
<path d="M33.7149 34.6301C34.0547 34.3253 34.4707 33.5375 34.6708 32.8548C34.8709 32.1707 34.7607 31.8542 34.3955 32.1691C34.0364 32.4785 33.559 33.3262 33.3893 33.9824C33.2176 34.6387 33.3812 34.9297 33.7149 34.6301Z" fill="#0990F7" fill-opacity="0.62"/>
<path d="M52.0965 15.1633C52.5364 14.7823 53.2378 13.9564 53.7513 13.225C54.2898 12.458 54.3741 12.1451 53.9068 12.5327C53.4486 12.9131 52.6324 13.8609 52.1493 14.5827C51.6795 15.2841 51.6693 15.533 52.0965 15.1633Z" fill="#0990F7" fill-opacity="0.62"/>
<path d="M40.169 26.2724C40.5576 25.8965 41.1056 25.0416 41.4642 24.2757C41.8061 23.5458 41.7791 23.2532 41.3702 23.623C40.9741 23.9816 40.3666 24.8842 40.0481 25.6049C39.7195 26.3475 39.7885 26.6411 40.169 26.2724Z" fill="#0990F7" fill-opacity="0.62"/>
<path d="M68.2119 12.9846C68.9748 12.7235 69.7143 12.0551 69.886 11.4466C70.0582 10.8381 69.5965 10.5658 68.8508 10.8554C68.095 11.1484 67.3748 11.8499 67.2041 12.4381C67.0406 13.0075 67.4779 13.236 68.2119 12.9846Z" fill="#0990F7" fill-opacity="0.62"/>
<path d="M24.629 48.1326C24.9982 48.0072 25.2598 47.5536 25.2395 47.1137C25.2187 46.6738 24.9241 46.4397 24.5533 46.587C24.1815 46.7343 23.8991 47.1858 23.9301 47.6176C23.9585 48.0341 24.2668 48.255 24.629 48.1326Z" fill="#0990F7" fill-opacity="0.62"/>
<path d="M22.8878 50.5978C23.2768 50.5333 23.5486 50.1783 23.5196 49.8059C23.4891 49.4219 23.1514 49.171 22.7552 49.2513C22.3514 49.3336 22.0583 49.6856 22.102 50.0675C22.1431 50.4337 22.49 50.6638 22.8878 50.5978Z" fill="#0990F7" fill-opacity="0.62"/>
<path d="M16.2698 56.8833C16.9067 57.0484 17.3827 56.9976 17.3583 56.7909C17.3329 56.577 16.8047 56.2804 16.1697 56.1168C15.5242 55.9507 15.0269 55.9751 15.0548 56.1971C15.0807 56.4084 15.6151 56.7137 16.2698 56.8833Z" fill="#0990F7" fill-opacity="0.62"/>
<path d="M65.5743 11.4999C66.231 11.1941 66.9538 10.4901 67.1951 9.90445C67.443 9.30255 67.0955 9.05772 66.4291 9.38838C65.749 9.72514 65.0338 10.4591 64.7926 11.0574C64.5625 11.6314 64.9013 11.8127 65.5743 11.4999Z" fill="#0990F7" fill-opacity="0.62"/>
<path d="M26.3406 45.097C26.6713 44.9325 26.9491 44.4047 26.977 43.9222C27.005 43.429 26.7454 43.1593 26.398 43.3513C26.0567 43.5397 25.7651 44.0659 25.7524 44.5449C25.7392 45.0259 26.0054 45.2641 26.3406 45.097Z" fill="#0990F7" fill-opacity="0.62"/>
<path d="M20.9708 52.5006C21.403 52.5001 21.7174 52.2131 21.6672 51.8941C21.6179 51.5848 21.2517 51.3343 20.8453 51.3399C20.4232 51.346 20.0758 51.6071 20.1053 51.9205C20.1342 52.2359 20.5335 52.5016 20.9708 52.5006Z" fill="#0990F7" fill-opacity="0.62"/>
<path d="M12.5836 58.5528C13.3597 58.7992 13.9662 58.8469 13.957 58.6844C13.9474 58.5218 13.3348 58.2018 12.5902 57.9606C11.844 57.7198 11.1736 57.6274 11.1604 57.7853C11.1466 57.9428 11.8237 58.3126 12.5836 58.5528Z" fill="#0990F7" fill-opacity="0.62"/>
<path d="M63.5804 10.1879C64.1229 9.9075 64.865 9.17202 65.1956 8.57724C65.5426 7.95299 65.3648 7.69191 64.7883 8.018C64.2448 8.32479 63.4814 9.10294 63.1553 9.67741C62.8287 10.2524 63.0258 10.4744 63.5804 10.1879Z" fill="#0990F7" fill-opacity="0.62"/>
<path d="M28.2045 41.4871C28.5174 41.2727 28.811 40.6723 28.877 40.1436C28.9426 39.6158 28.7475 39.3451 28.425 39.5564C28.1065 39.7652 27.7662 40.3914 27.7052 40.9045C27.6423 41.4337 27.8871 41.7044 28.2045 41.4871Z" fill="#0990F7" fill-opacity="0.62"/>
<path d="M56.7826 11.2105C57.2341 10.8483 57.9666 10.0376 58.4516 9.36921C58.9347 8.70331 58.9657 8.4524 58.4913 8.83537C58.0382 9.20108 57.2687 10.0412 56.8136 10.6726C56.3437 11.3242 56.3407 11.565 56.7826 11.2105Z" fill="#0990F7" fill-opacity="0.62"/>
<path d="M36.517 29.5794C36.8477 29.2935 37.3221 28.5062 37.5954 27.8123C37.8697 27.1149 37.8178 26.7914 37.4506 27.1083C37.089 27.4212 36.5612 28.271 36.3301 28.9298C36.1056 29.5683 36.2001 29.8537 36.517 29.5794Z" fill="#0990F7" fill-opacity="0.62"/>
<path d="M18.7473 53.8081C19.2298 53.871 19.5498 53.7004 19.5071 53.4281C19.4635 53.1559 19.0881 52.9187 18.6168 52.8669C18.154 52.8166 17.7848 52.9715 17.8152 53.2255C17.8452 53.4815 18.2673 53.7451 18.7473 53.8081Z" fill="#0990F7" fill-opacity="0.62"/>
<path d="M48.1937 16.9363C48.5721 16.6001 49.2248 15.7843 49.6885 15.0773C50.169 14.3449 50.2376 14.0249 49.8104 14.3896C49.402 14.738 48.7255 15.5756 48.2775 16.2974C47.8326 17.0146 47.8082 17.2782 48.1937 16.9363Z" fill="#0990F7" fill-opacity="0.62"/>
<path d="M62.4424 8.76744C62.9376 8.44846 63.6477 7.71806 64.0109 7.14968C64.3705 6.58639 64.2775 6.35984 63.7955 6.67578C63.3033 6.99781 62.5958 7.73126 62.2163 8.31386C61.8329 8.90102 61.9395 9.09099 62.4424 8.76744Z" fill="#0990F7" fill-opacity="0.62"/>
<path d="M30.3456 37.2776C30.6483 37.042 30.9882 36.3888 31.1029 35.8443C31.2172 35.3003 31.0618 35.0331 30.7448 35.2754C30.4233 35.5217 30.0734 36.1648 29.9682 36.722C29.8631 37.2781 30.0373 37.5174 30.3456 37.2776Z" fill="#0990F7" fill-opacity="0.62"/>
<path d="M52.5242 13.199C52.8995 12.8795 53.6442 12.0181 54.1272 11.3522C54.6092 10.6868 54.7078 10.3648 54.308 10.6959C53.8951 11.0383 53.151 11.8937 52.6679 12.589C52.2072 13.2514 52.1544 13.5129 52.5242 13.199Z" fill="#0990F7" fill-opacity="0.62"/>
<path d="M44.0274 20.5804C44.3656 20.2893 44.996 19.438 45.3957 18.7462C45.7909 18.0615 45.8381 17.6999 45.4709 18.0067C45.1077 18.3099 44.4891 19.1277 44.1071 19.8205C43.7043 20.5494 43.6815 20.878 44.0274 20.5804Z" fill="#0990F7" fill-opacity="0.62"/>
<path d="M12.7454 56.7702C13.3833 56.9764 13.8913 56.9942 13.875 56.8286C13.8577 56.662 13.3351 56.3567 12.7256 56.1531C12.1074 55.9468 11.5548 55.89 11.5329 56.0469C11.5091 56.2105 12.0881 56.5584 12.7454 56.7702Z" fill="#0990F7" fill-opacity="0.62"/>
<path d="M16.0776 54.5504C16.5911 54.6733 16.9462 54.5808 16.9066 54.3543C16.869 54.1384 16.4814 53.8987 15.9974 53.7885C15.527 53.6818 15.1197 53.7427 15.1191 53.9353C15.1181 54.1349 15.5798 54.4315 16.0776 54.5504Z" fill="#0990F7" fill-opacity="0.62"/>
<path d="M40.0622 23.9474C40.3786 23.6731 40.8734 22.9488 41.1822 22.3174C41.5032 21.6617 41.489 21.3529 41.1293 21.6586C40.7799 21.9558 40.2831 22.6786 39.9885 23.3282C39.697 23.9738 39.7366 24.2293 40.0622 23.9474Z" fill="#0990F7" fill-opacity="0.62"/>
<path d="M57.2016 9.28863C57.5769 8.98438 58.2525 8.25397 58.7258 7.64598C59.2175 7.01462 59.3044 6.74644 58.893 7.07659C58.4927 7.3976 57.8172 8.12547 57.3387 8.75683C56.8633 9.38362 56.8155 9.60152 57.2016 9.28863Z" fill="#0990F7" fill-opacity="0.62"/>
<path d="M32.9257 32.4908C33.2112 32.2612 33.5936 31.5933 33.7602 31.0493C33.9263 30.5043 33.8192 30.2346 33.5144 30.4845C33.2132 30.7319 32.8505 31.3475 32.69 31.8975C32.5209 32.4756 32.6311 32.728 32.9257 32.4908Z" fill="#0990F7" fill-opacity="0.62"/>
<path d="M61.952 7.22241C62.3497 6.95066 63.0298 6.25529 63.4437 5.69911C63.8496 5.15207 63.8694 4.90166 63.4696 5.18255C63.0562 5.47257 62.3842 6.16541 61.9641 6.73683C61.5588 7.28844 61.5603 7.48958 61.952 7.22241Z" fill="#0990F7" fill-opacity="0.62"/>
<path d="M7.4935 58.7896C6.74938 58.5291 6.08958 58.3899 6.04183 58.4976C5.99358 58.6053 6.58227 58.9227 7.34213 59.1904C8.11622 59.4642 8.83189 59.5973 8.86389 59.4891C8.8964 59.3809 8.25133 59.0558 7.4935 58.7896Z" fill="#0990F7" fill-opacity="0.62"/>
<path d="M7.93236 57.7338C8.63635 57.9954 9.25145 58.1041 9.27989 57.9868C9.30834 57.8689 8.75469 57.5576 8.06847 57.298C7.38531 57.0405 6.7316 56.8998 6.6869 57.0156C6.64271 57.1309 7.23243 57.4743 7.93236 57.7338Z" fill="#0990F7" fill-opacity="0.62"/>
<path d="M12.7746 54.6727C13.3064 54.8586 13.7102 54.8662 13.7219 54.7041C13.7331 54.5487 13.3836 54.312 12.9011 54.1464C12.3906 53.9712 11.9533 53.9412 11.9243 54.0931C11.8959 54.2379 12.2784 54.4994 12.7746 54.6727Z" fill="#0990F7" fill-opacity="0.62"/>
<path d="M22.6504 46.3111C22.9312 46.2338 23.1481 45.9215 23.1578 45.5969C23.1674 45.2566 22.9465 45.0626 22.6509 45.1616C22.3695 45.2561 22.1465 45.5715 22.1465 45.8895C22.1465 46.2089 22.3664 46.3888 22.6504 46.3111Z" fill="#0990F7" fill-opacity="0.62"/>
<path d="M20.6352 48.7804C20.9379 48.7525 21.168 48.5082 21.1665 48.2288C21.1654 47.9504 20.9318 47.7488 20.6357 47.7782C20.3309 47.8082 20.0871 48.0363 20.0775 48.3121C20.0673 48.6052 20.3147 48.8099 20.6352 48.7804Z" fill="#0990F7" fill-opacity="0.62"/>
<path d="M70.4497 6.50421C70.947 6.28631 71.5342 5.72758 71.7297 5.27958C71.9237 4.83362 71.6728 4.64264 71.1852 4.87731C70.6874 5.11654 70.1363 5.66815 69.9342 6.12427C69.7432 6.55601 69.9672 6.71551 70.4497 6.50421Z" fill="#0990F7" fill-opacity="0.62"/>
<path d="M8.44101 56.0895C9.05815 56.3313 9.58183 56.4192 9.59758 56.2958C9.61332 56.1723 9.13079 55.8803 8.53143 55.6461C7.9209 55.4074 7.4216 55.3134 7.40382 55.4465C7.38605 55.5709 7.84013 55.8544 8.44101 56.0895Z" fill="#0990F7" fill-opacity="0.62"/>
<path d="M24.6505 43.2056C24.909 43.0858 25.1437 42.6723 25.1635 42.3183C25.1828 41.9592 24.9832 41.7697 24.7196 41.9094C24.4646 42.045 24.2426 42.4199 24.2172 42.7693C24.1908 43.1371 24.3869 43.328 24.6505 43.2056Z" fill="#0990F7" fill-opacity="0.62"/>
<path d="M53.3886 10.6626C53.6908 10.4178 54.3242 9.69905 54.7447 9.12865C55.1638 8.55875 55.2628 8.26516 54.9332 8.53233C54.6101 8.79442 53.9971 9.48267 53.5968 10.0363C53.1762 10.6189 53.0858 10.9074 53.3886 10.6626Z" fill="#0990F7" fill-opacity="0.62"/>
<path d="M48.8314 14.3095C49.123 14.0728 49.7152 13.351 50.0962 12.7725C50.4766 12.195 50.5472 11.8887 50.2272 12.1497C49.9138 12.4057 49.3409 13.096 48.9807 13.6563C48.6008 14.2465 48.5383 14.5472 48.8314 14.3095Z" fill="#0990F7" fill-opacity="0.62"/>
<path d="M18.4434 50.6079C18.7538 50.6317 19.0164 50.4423 19.0032 50.2157C18.9894 49.9892 18.707 49.781 18.4038 49.7774C18.1092 49.7738 17.8527 49.942 17.8496 50.1497C17.8461 50.3686 18.1265 50.584 18.4434 50.6079Z" fill="#0990F7" fill-opacity="0.62"/>
<path d="M62.2542 5.29578C62.5909 5.03521 63.1644 4.44092 63.556 3.94823C63.9486 3.45452 64.0126 3.24576 63.6855 3.49007C63.3645 3.72982 62.7438 4.36118 62.3563 4.84574C61.9504 5.35215 61.9078 5.56295 62.2542 5.29578Z" fill="#0990F7" fill-opacity="0.62"/>
<path d="M36.1256 27.0904C36.3781 26.8867 36.7448 26.3087 36.9546 25.7942C37.1659 25.2745 37.1369 25.0064 36.8758 25.1994C36.6071 25.398 36.1779 26.0547 35.9895 26.5652C35.8087 27.0508 35.8777 27.291 36.1256 27.0904Z" fill="#0990F7" fill-opacity="0.62"/>
<path d="M68.7194 4.84722C69.1511 4.61205 69.6504 4.11428 69.8952 3.67238C70.1274 3.25385 70.0136 3.10299 69.6174 3.31836C69.2121 3.5388 68.6589 4.08025 68.4065 4.50082C68.1556 4.91986 68.3014 5.07477 68.7194 4.84722Z" fill="#0990F7" fill-opacity="0.62"/>
<path d="M26.7873 39.4263C27.0342 39.278 27.2526 38.8762 27.3079 38.4805C27.3633 38.0863 27.2211 37.9208 26.961 38.0935C26.7274 38.2484 26.4881 38.6649 26.4368 39.0148C26.3835 39.3816 26.5481 39.569 26.7873 39.4263Z" fill="#0990F7" fill-opacity="0.62"/>
<path d="M44.4041 17.7845C44.6571 17.6001 45.1244 17.0018 45.4474 16.4568C45.7649 15.9204 45.8192 15.6126 45.55 15.8102C45.2702 16.0154 44.8059 16.6102 44.4915 17.173C44.1913 17.7099 44.1598 17.9623 44.4041 17.7845Z" fill="#0990F7" fill-opacity="0.62"/>
<path d="M58.1358 6.87561C58.4075 6.67193 58.981 6.07105 59.4071 5.54737C59.8267 5.03081 59.9577 4.75501 59.6723 4.96783C59.3756 5.18878 58.8108 5.78051 58.378 6.32806C57.9682 6.84665 57.8716 7.07268 58.1358 6.87561Z" fill="#0990F7" fill-opacity="0.62"/>
<path d="M15.919 51.7688C16.2451 51.8405 16.5346 51.7368 16.5214 51.5616C16.5082 51.3955 16.2314 51.201 15.9317 51.1471C15.6194 51.0913 15.3593 51.1751 15.3527 51.3417C15.3456 51.5098 15.596 51.6982 15.919 51.7688Z" fill="#0990F7" fill-opacity="0.62"/>
<path d="M8.92516 54.247C9.37772 54.4294 9.73429 54.4782 9.75664 54.3679C9.77898 54.2562 9.46966 54.0464 9.02115 53.8661C8.59449 53.6949 8.18256 53.6228 8.15209 53.7213C8.12212 53.8194 8.49392 54.0733 8.92516 54.247Z" fill="#0990F7" fill-opacity="0.62"/>
<path d="M67.7756 3.17998C68.0966 2.99052 68.5563 2.53846 68.8458 2.12653C69.1399 1.70901 69.1282 1.53733 68.8108 1.73034C68.508 1.91421 67.9945 2.41758 67.7141 2.80462C67.4383 3.18608 67.4698 3.3608 67.7756 3.17998Z" fill="#0990F7" fill-opacity="0.62"/>
<path d="M29.2205 35.0219C29.4329 34.8914 29.664 34.4977 29.764 34.1041C29.8651 33.7054 29.7843 33.5078 29.5649 33.647C29.3557 33.7795 29.089 34.2168 28.9991 34.581C28.9102 34.9396 29.0189 35.1459 29.2205 35.0219Z" fill="#0990F7" fill-opacity="0.62"/>
<path d="M2.71365 56.1527C2.19048 55.9328 1.71455 55.8043 1.65259 55.8713C1.5891 55.9389 1.95938 56.172 2.49372 56.3975C3.04889 56.6317 3.57968 56.7658 3.61066 56.6871C3.63911 56.6134 3.22209 56.3665 2.71365 56.1527Z" fill="#0990F7" fill-opacity="0.62"/>
<path d="M1.78768 57.5781C1.29245 57.3867 0.808398 57.2632 0.748462 57.3176C0.684463 57.376 1.11874 57.6249 1.65258 57.8326C2.17879 58.0378 2.70501 58.1628 2.7365 58.0962C2.76901 58.0292 2.31034 57.7803 1.78768 57.5781Z" fill="#0990F7" fill-opacity="0.62"/>
<path d="M12.9489 52.2933C13.246 52.3903 13.5254 52.3619 13.5274 52.2395C13.5294 52.1257 13.2917 51.951 13.0189 51.8651C12.7299 51.7742 12.4404 51.795 12.4318 51.9129C12.4247 52.0221 12.668 52.2019 12.9489 52.2933Z" fill="#0990F7" fill-opacity="0.62"/>
<path d="M40.0935 21.0426C40.283 20.91 40.6091 20.4574 40.8178 20.0425C41.0286 19.6234 41.0429 19.3933 40.8412 19.535C40.6497 19.6691 40.286 20.1644 40.0966 20.5524C39.9066 20.94 39.9076 21.1721 40.0935 21.0426Z" fill="#0990F7" fill-opacity="0.62"/>
<path d="M63.1973 2.92937C63.4345 2.74499 63.8932 2.27668 64.2167 1.89116C64.5413 1.50411 64.6114 1.33903 64.3646 1.52951C64.1213 1.71693 63.6336 2.21013 63.3309 2.57584C63.0338 2.93393 62.9723 3.10461 63.1973 2.92937Z" fill="#0990F7" fill-opacity="0.62"/>
<path d="M3.36989 54.8577C3.8382 55.0675 4.25014 55.1746 4.2989 55.104C4.34817 55.0329 4.02562 54.8216 3.55782 54.6154C3.10475 54.4163 2.66284 54.2974 2.63338 54.3721C2.60595 54.4427 2.94678 54.6682 3.36989 54.8577Z" fill="#0990F7" fill-opacity="0.62"/>
<path d="M32.1705 29.8935C32.3467 29.7823 32.5727 29.4288 32.6855 29.0925C32.7967 28.7593 32.7373 28.5963 32.5489 28.7375C32.3711 28.8706 32.1695 29.1956 32.0658 29.5182C31.9612 29.8433 32.0069 29.9967 32.1705 29.8935Z" fill="#0990F7" fill-opacity="0.62"/>
<path d="M67.7776 1.19583C68.0133 1.0277 68.38 0.661998 68.6192 0.358256C68.8763 0.0311486 68.8874 -0.0973599 68.6385 0.0799078C68.4044 0.246509 68.0478 0.601555 67.7944 0.921043C67.5201 1.26694 67.516 1.38224 67.7776 1.19583Z" fill="#0990F7" fill-opacity="0.62"/>
<path d="M0.93779 58.9562C0.481161 58.7866 0.0372399 58.6774 0.00219266 58.7302C-0.029807 58.779 0.292213 58.9506 0.721414 59.1127C1.1623 59.2788 1.65449 59.4002 1.71137 59.361C1.76775 59.3235 1.37512 59.1193 0.93779 58.9562Z" fill="#0990F7" fill-opacity="0.62"/>
<path d="M54.6402 7.47052C54.7921 7.36893 55.1898 6.93973 55.4677 6.57961C55.7602 6.20018 55.8897 5.92133 55.7165 6.03409C55.557 6.1377 55.1543 6.56894 54.8785 6.93363C54.5727 7.33743 54.464 7.58836 54.6402 7.47052Z" fill="#0990F7" fill-opacity="0.62"/>
<path d="M59.659 3.76331C59.8322 3.64445 60.1359 3.33613 60.4259 2.98515C60.7165 2.63468 60.8054 2.46452 60.6367 2.57779C60.4742 2.68598 60.1232 3.04001 59.853 3.36864C59.5818 3.6988 59.4974 3.87404 59.659 3.76331Z" fill="#0990F7" fill-opacity="0.62"/>
<path d="M4.29953 53.2093C4.64035 53.3642 4.8999 53.4282 4.92733 53.3677C4.95425 53.3073 4.73584 53.1564 4.40162 53.0041C4.07857 52.8568 3.78448 52.7775 3.7535 52.8334C3.72302 52.8888 3.97242 53.061 4.29953 53.2093Z" fill="#0990F7" fill-opacity="0.62"/>
<path d="M9.4201 52.1735C9.69133 52.2797 9.89298 52.2965 9.89907 52.2167C9.90517 52.1365 9.71723 52.009 9.446 51.9079C9.21083 51.8205 9.01222 51.7987 8.98784 51.8601C8.96092 51.9287 9.15546 52.0699 9.4201 52.1735Z" fill="#0990F7" fill-opacity="0.62"/>
<path d="M49.8114 10.9354C49.9856 10.8181 50.2573 10.5052 50.4996 10.1471C50.7419 9.78853 50.7947 9.61279 50.623 9.72504C50.4585 9.83273 50.1426 10.1918 49.9201 10.5271C49.6951 10.8638 49.6494 11.0452 49.8114 10.9354Z" fill="#0990F7" fill-opacity="0.62"/>
</svg>
