<svg width="40" height="40" viewBox="0 0 40 40" fill="none" xmlns="http://www.w3.org/2000/svg">
<rect width="40" height="40" rx="20" fill="#F0FCF8"/>
<path d="M25.6005 13.3093L19.9505 10.2693C19.3505 9.9493 18.6405 9.9493 18.0405 10.2693L12.4005 13.3093C11.9905 13.5393 11.7305 13.9793 11.7305 14.4593C11.7305 14.9493 11.9805 15.3893 12.4005 15.6093L18.0505 18.6493C18.3505 18.8093 18.6805 18.8893 19.0005 18.8893C19.3205 18.8893 19.6605 18.8093 19.9505 18.6493L25.6005 15.6093C26.0105 15.3893 26.2705 14.9493 26.2705 14.4593C26.2705 13.9793 26.0105 13.5393 25.6005 13.3093Z" fill="#00AA75"/>
<path d="M17.12 19.7086L11.87 17.0886C11.46 16.8786 11 16.9086 10.61 17.1386C10.23 17.3786 10 17.7886 10 18.2386V23.1986C10 24.0586 10.48 24.8286 11.25 25.2186L16.5 27.8386C16.68 27.9286 16.88 27.9786 17.08 27.9786C17.31 27.9786 17.55 27.9086 17.76 27.7886C18.14 27.5486 18.37 27.1386 18.37 26.6886V21.7286C18.36 20.8686 17.88 20.0986 17.12 19.7086Z" fill="#00AA75"/>
<path d="M27.9996 18.2386V20.6986C27.5196 20.5586 27.0096 20.4986 26.4996 20.4986C25.1396 20.4986 23.8096 20.9686 22.7596 21.8086C21.3196 22.9386 20.4996 24.6486 20.4996 26.4986C20.4996 26.9886 20.5596 27.4786 20.6896 27.9486C20.5396 27.9286 20.3896 27.8686 20.2496 27.7786C19.8696 27.5486 19.6396 27.1386 19.6396 26.6886V21.7286C19.6396 20.8686 20.1196 20.0986 20.8796 19.7086L26.1296 17.0886C26.5396 16.8786 26.9996 16.9086 27.3896 17.1386C27.7696 17.3786 27.9996 17.7886 27.9996 18.2386Z" fill="#00AA75"/>
<path d="M29.6804 23.3206C28.7904 22.4306 27.6104 21.9806 26.4404 22.0006C25.3104 22.0106 24.1804 22.4606 23.3204 23.3206C22.7204 23.9106 22.3304 24.6506 22.1404 25.4206C22.0304 25.8406 21.9904 26.2706 22.0204 26.7006V26.7506C22.0204 26.8206 22.0304 26.8806 22.0404 26.9606C22.0404 26.9606 22.0404 26.9606 22.0504 26.9706V27.0006C22.1404 27.9806 22.5604 28.9306 23.3204 29.6806C24.4804 30.8406 26.1104 31.2306 27.5804 30.8606C28.0204 30.7506 28.4504 30.5706 28.8504 30.3306C29.1504 30.1606 29.4304 29.9406 29.6804 29.6806C30.4304 28.9306 30.8604 27.9806 30.9504 26.9906C30.9604 26.9906 30.9604 26.9706 30.9604 26.9606C30.9804 26.8906 30.9804 26.8106 30.9804 26.7406C30.9804 26.7306 30.9904 26.7106 30.9904 26.6906C31.0504 25.4806 30.6104 24.2406 29.6804 23.3206ZM28.2304 28.2106C27.9404 28.5006 27.4704 28.5006 27.1704 28.2106L26.5104 27.5506L25.8304 28.2306C25.5304 28.5306 25.0604 28.5306 24.7704 28.2306C24.4704 27.9406 24.4704 27.4706 24.7704 27.1706L25.4504 26.4906L24.7904 25.8306C24.5004 25.5306 24.5004 25.0606 24.7904 24.7706C25.0904 24.4706 25.5604 24.4706 25.8604 24.7706L26.5104 25.4306L27.1404 24.7906C27.4404 24.5006 27.9104 24.5006 28.2104 24.7906C28.5004 25.0906 28.5004 25.5606 28.2104 25.8606L27.5704 26.4906L28.2304 27.1406C28.5304 27.4406 28.5304 27.9106 28.2304 28.2106Z" fill="#00AA75"/>
</svg>
