<svg width="40" height="40" viewBox="0 0 40 40" fill="none" xmlns="http://www.w3.org/2000/svg">
<rect width="40" height="40" rx="20" fill="#F5F0FF"/>
<path d="M25 11.5H15C12 11.5 10 13 10 16.5V23.5C10 27 12 28.5 15 28.5H25C28 28.5 30 27 30 23.5V16.5C30 13 28 11.5 25 11.5ZM11.75 16.5C11.75 14.71 13.21 13.25 15 13.25H16.5C16.91 13.25 17.25 13.59 17.25 14C17.25 14.41 16.91 14.75 16.5 14.75H15C14.04 14.75 13.25 15.54 13.25 16.5V18C13.25 18.41 12.91 18.75 12.5 18.75C12.09 18.75 11.75 18.41 11.75 18V16.5ZM16.5 26.75H15C13.21 26.75 11.75 25.29 11.75 23.5V22C11.75 21.59 12.09 21.25 12.5 21.25C12.91 21.25 13.25 21.59 13.25 22V23.5C13.25 24.46 14.04 25.25 15 25.25H16.5C16.91 25.25 17.25 25.59 17.25 26C17.25 26.41 16.91 26.75 16.5 26.75ZM20 23C18.34 23 17 21.66 17 20C17 18.34 18.34 17 20 17C21.66 17 23 18.34 23 20C23 21.66 21.66 23 20 23ZM28.25 23.5C28.25 25.29 26.79 26.75 25 26.75H23.5C23.09 26.75 22.75 26.41 22.75 26C22.75 25.59 23.09 25.25 23.5 25.25H25C25.96 25.25 26.75 24.46 26.75 23.5V22C26.75 21.59 27.09 21.25 27.5 21.25C27.91 21.25 28.25 21.59 28.25 22V23.5ZM28.25 18C28.25 18.41 27.91 18.75 27.5 18.75C27.09 18.75 26.75 18.41 26.75 18V16.5C26.75 15.54 25.96 14.75 25 14.75H23.5C23.09 14.75 22.75 14.41 22.75 14C22.75 13.59 23.09 13.25 23.5 13.25H25C26.79 13.25 28.25 14.71 28.25 16.5V18Z" fill="#5700FF"/>
</svg>
